<svg xmlns="http://www.w3.org/2000/svg" width="298" height="97.24" viewBox="0 0 298 97.24"><path fill="#4285F4" d="M38.27 75.44C17.48 75.44 0 58.51 0 37.72S17.48 0 38.27 0c11.5 0 19.69 4.51 25.85 10.4l-7.27 7.27c-4.42-4.14-10.4-7.36-18.58-7.36-15.18 0-27.05 12.24-27.05 27.42 0 15.18 11.87 27.41 27.05 27.41 9.84 0 15.46-3.96 19.04-7.54 2.94-2.94 4.88-7.18 5.61-12.97H38v-10.3h34.95c.37 1.84.55 4.05.55 6.44 0 7.73-2.12 17.3-8.92 24.1-6.62 6.89-15.09 10.57-26.31 10.57z"/><path fill="#E94235" d="M125.85 51.15c0 13.98-10.93 24.29-24.35 24.29s-24.35-10.3-24.35-24.29c0-14.08 10.93-24.29 24.35-24.29s24.35 10.21 24.35 24.29zm-10.66 0c0-8.74-6.34-14.72-13.69-14.72s-13.69 5.98-13.69 14.72c0 8.65 6.34 14.72 13.69 14.72s13.69-6.07 13.69-14.72z"/><path fill="#FABB05" d="M178.85 51.15c0 13.98-10.93 24.29-24.35 24.29s-24.35-10.3-24.35-24.29c0-14.08 10.93-24.29 24.35-24.29s24.35 10.21 24.35 24.29zm-10.66 0c0-8.74-6.34-14.72-13.69-14.72s-13.69 5.98-13.69 14.72c0 8.65 6.34 14.72 13.69 14.72s13.69-6.07 13.69-14.72z"/><path fill="#4285F4" d="M229.55 28.34v43.61c0 17.94-10.58 25.3-23.09 25.3-11.78 0-18.86-7.91-21.53-14.35l9.29-3.86c1.66 3.96 5.7 8.65 12.24 8.65 8 0 12.97-4.97 12.97-14.26v-3.5h-.37c-2.39 2.94-6.99 5.52-12.79 5.52-12.14 0-23.28-10.58-23.28-24.19 0-13.71 11.13-24.38 23.28-24.38 5.79 0 10.4 2.58 12.79 5.43h.37v-3.96h10.12zm-9.38 22.9c0-8.56-5.7-14.81-12.97-14.81-7.36 0-13.52 6.26-13.52 14.81 0 8.46 6.16 14.63 13.52 14.63 7.26 0 12.97-6.16 12.97-14.63z"/><path fill="#34A853" d="M247.9 2.58v71.39h-10.67V2.58h10.67z"/><path fill="#E94235" d="M289.26 59.15l8.28 5.52c-2.67 3.96-9.11 10.76-20.24 10.76-13.8 0-24.1-10.67-24.1-24.29 0-14.44 10.4-24.29 22.91-24.29 12.6 0 18.77 10.03 20.79 15.46l1.1 2.76-32.47 13.43c2.48 4.88 6.35 7.36 11.78 7.36 5.42.01 9.19-2.66 11.95-6.71zm-25.48-8.74l21.71-9.02c-1.2-3.04-4.78-5.15-9.02-5.15-5.42.01-12.97 4.79-12.69 14.17z"/></svg>
