<svg id="Layer_1" data-name="Layer 1" xmlns="http://www.w3.org/2000/svg" viewBox="0 0 984.76 194.13"><title>logo-light</title><path d="M586,238.61a62.8,62.8,0,0,1,4-23.11,47,47,0,0,1,10.68-16.67q13.22-12.94,33.76-12.94t33.76,12.74q14.65,14,14.66,39.65t-13.46,39.34q-13.46,13.73-35,13.73t-34.93-13.9Q586,263.54,586,238.61Zm48.62,43.83a26.21,26.21,0,0,0,20.13-8.9Q665,262.31,665,239.37t-8.77-33.76q-8.77-10.82-22.05-10.82T612.4,205.57q-8.59,10.79-8.59,32.36,0,31,17,40.88A27,27,0,0,0,634.62,282.44Z" transform="translate(-337.45 -138.62)" style="fill:#213174;stroke:#213174;stroke-miterlimit:10;stroke-width:3px"/><path d="M775.28,272.24c2.16,3.28,3.55,4.72,4.77,6.41s2.23,2.36,7,5.35l2.76,1.21L788.14,290H757.42l-1.82-2.24,1.82-2.52c2.34-3.09,3.87-6.35,2.58-9.58l-2.12-3.52-21-33.63L720,254.84V262c0,5.61-.34,10.19.59,13.42a29.75,29.75,0,0,0,4.91,9.82l1.82,2.52L725.5,290H694.78l-1.68-4.77,3.23-.84q5.33-1.55,7.15-4.07t1.82-9V206.93h0c0-4.3-.6-8-1.81-9.64s-3.6-3-7.15-4.07l-3.23-.84,1.68-4.77h30.71l1.82,2.24-1.82,2.52c-2.34,3.09-4.25,6.3-4.91,9.82-0.72,3.84-.57,11-0.57,16.62l0,24.39,38.29-37c2.42-2.58,4.95-5.54,4.95-7.36a17.45,17.45,0,0,0-1.82-6.8l-1.26-2.52,2.66-2.24h25.38L789.9,192l-3.23.84c-4.77,1.31-11.84,8.62-11.84,8.62h0l-27.91,27.27,28.35,43.49h0ZM789,194.79" transform="translate(-337.45 -138.62)" style="fill:#213174;stroke:#213174;stroke-miterlimit:10;stroke-width:3px"/><path d="M853.51,269.26a51.34,51.34,0,0,1-5.34-13.49,63.85,63.85,0,0,1-1.92-15.61,74.86,74.86,0,0,1,1.27-14.42,58.21,58.21,0,0,1,3.87-12.33,45.62,45.62,0,0,1,16.91-20q11.37-7.5,27.94-7.5t27.6,8.22q11,8.22,11,20.07,0,8.08-6.44,10.89a10.26,10.26,0,0,1-4.25.89,9.63,9.63,0,0,1-7.12-2.74,8.73,8.73,0,0,1-2.74-6.37q0-7.26,5.82-10a19.66,19.66,0,0,0-9.31-9.07,29.59,29.59,0,0,0-13.49-3.32q-14.59,0-23.8,10.89T864.33,238q0,21.74,9.59,33.11t23.28,11.37q11.16,0,17.29-5.62t6.13-12.36q0-6.74-3.08-8.49t-14.11-1.75v-9.11H934.8V290h-9.18l-2.53-8.22q-5.89,6.16-18.22,8.63a49.73,49.73,0,0,1-10.27,1,55.7,55.7,0,0,1-11.68-1.27,48.32,48.32,0,0,1-11.33-3.94,43.86,43.86,0,0,1-10-6.85A41.85,41.85,0,0,1,853.51,269.26Z" transform="translate(-337.45 -138.62)" style="fill:#213174;stroke:#213174;stroke-miterlimit:10;stroke-width:3px"/><path d="M1040.06,238.61a62.8,62.8,0,0,1,4-23.11,47,47,0,0,1,10.68-16.67q13.22-12.94,33.76-12.94t33.76,12.74q14.65,14,14.65,39.65t-13.46,39.34q-13.46,13.73-35,13.73t-34.93-13.9Q1040.06,263.54,1040.06,238.61Zm48.62,43.83a26.21,26.21,0,0,0,20.13-8.9q10.27-11.23,10.27-34.17t-8.77-33.76q-8.77-10.82-22.05-10.82t-21.81,10.79q-8.6,10.79-8.59,32.36,0,31,17,40.88A27,27,0,0,0,1088.68,282.44Z" transform="translate(-337.45 -138.62)" style="fill:#213174;stroke:#213174;stroke-miterlimit:10;stroke-width:3px"/><path d="M1299.61,280.8a10.52,10.52,0,1,1,3.08,7.46A10.17,10.17,0,0,1,1299.61,280.8Zm7.6-21.5q-0.89-8.56-2-17.19-4-32.6-4.59-51.29-0.21-4.93,9.66-4.93,7.19,0,9.18,2.19a3.8,3.8,0,0,1,.82,2.74q-0.62,19.18-3,39.55t-3.32,28.93h-6.71Z" transform="translate(-337.45 -138.62)" style="fill:#213174;stroke:#213174;stroke-miterlimit:10;stroke-width:3px"/><path d="M1035.27,286.33q-5.75,5.61-12.76,5.61T1011.29,288q-4.21-3.92-8.27-12.48l-10.66-22.58c-0.84-1.87-2.55-4.89-5.54-6a3.72,3.72,0,0,1-2.66-3.79q0-2.8,2.24-2.8c0.09,0,1.44,0,2.87,0s-1.68,0,0,0q10.52,0,16.41-6t5.89-16.06q0-10.1-6.24-16.62t-17.25-6.52q-11,0-11,6.45v60.17a52.85,52.85,0,0,0,1.4,13.53,30,30,0,0,0,4.91,9.89l1.82,2.52L983.38,290H952.66L951,285.21l3.23-.84q5.33-1.4,7.15-4.07t1.82-9V202q0-3.37-3.09-3.37H952l-1.68-5.19a91.18,91.18,0,0,1,15.92-4.28,101,101,0,0,1,19-1.89q20.75,0,30.85,8.56t10.1,22.16a29.43,29.43,0,0,1-5.75,18.09q-5.75,7.72-17,10.38a18.68,18.68,0,0,1,5.61,6.87l13,26.51q2.1,4.35,5,4.35a9.91,9.91,0,0,0,5.75-2Z" transform="translate(-337.45 -138.62)" style="fill:#213174;stroke:#213174;stroke-miterlimit:10;stroke-width:3px"/><path d="M1166.18,197.15a5,5,0,0,0-1.47,3.79,24.45,24.45,0,0,0,1.54,7l22.86,70.41,20.9-65.22-1.4-4.49a32,32,0,0,0-4.77-9.82,43.73,43.73,0,0,0-7.85-7.29l1.82-2.24h31.56l1.68,4.77-3.23.84a10.87,10.87,0,0,0-4.84,2.24,5,5,0,0,0-1.47,3.79,24.48,24.48,0,0,0,1.54,7l22.86,70.41,19.63-61q2.66-8.42,2.67-13-0.28-7.71-6.31-9.4l-3.23-.84,1.68-4.77H1287l1.82,2.24-2.1,2.52a41.13,41.13,0,0,0-7.71,14L1251.94,290h-16l-20.62-61.15L1195.14,290h-16l-27.35-81.34a32,32,0,0,0-4.77-9.82,43.73,43.73,0,0,0-7.85-7.29l1.82-2.24h31.56l1.68,4.77-3.23.84A10.87,10.87,0,0,0,1166.18,197.15Z" transform="translate(-337.45 -138.62)" style="fill:#213174;stroke:#213174;stroke-miterlimit:10;stroke-width:3px"/><path d="M385.16,176l0.69,0.11,0.29,0,1.61,0.29,0.21,0,1.38,0.29,0.34,0.08,1.53,0.37,0.14,0,1.37,0.37,0.37,0.1,1.48,0.44h0L396,178.7l0.39,0.13,1.26,0.45,0.19,0.07,1.39,0.55,0.39,0.16,1.14,0.49,0.29,0.13,1.36,0.63,0.35,0.17,0.53,0.25v-0.08q0-.59.08-1.16l0-.27c0-.41.07-0.81,0.11-1.21v0c0-.4.08-0.8,0.13-1.19l0-.28q0.06-.47.13-0.93l0-.24q0.08-.56.17-1.11l0-.2q0.08-.45.17-0.9l0.06-.29c0.07-.34.14-0.68,0.21-1v0c0.08-.35.16-0.7,0.24-1l0.07-.27q0.1-.42.22-0.83l0.06-.22q0.14-.5.29-1l0.06-.19,0.26-.82,0.08-.26q0.32-1,.69-2l0.09-.25,0.31-.81,0.08-.19,0.4-1,0.08-.19,0.34-.81,0.06-.14c-1.88-1.22-3.77-2.38-5.61-3.48l-16.28-7.69-1.05,17.73,0.14,3.3C385.06,173.85,385.11,175,385.16,176Z" transform="translate(-337.45 -138.62)" style="fill:#213174"/><path d="M360.1,205.8l1.85,2.91,0.49-.18,0.53-.2,1.38-.49,0.45-.15,1.05-.35,0.51-.16,1.39-.42,0.34-.09,1.14-.31,0.49-.13,1.3-.31,0.3-.07,1.29-.27,0.49-.09,1.18-.21,0.31-.05L376,205l0.49-.06,1.13-.14,0.4,0,1.44-.13,0.48,0,0.48,0-0.14-.23h0.08l-0.41-.83-0.17-.36-0.43-.92-0.08-.17c-0.16-.35-0.31-0.7-0.46-1l-0.14-.33-0.32-.79-0.12-.29q-0.2-.51-0.39-1l-0.09-.24-0.29-.81-0.1-.3q-0.16-.48-0.31-1l0-.06c-0.11-.34-0.21-0.68-0.31-1l-0.08-.27-0.23-.82-0.06-.21q-0.13-.51-0.25-1l0-.19q-0.1-.43-0.19-0.85l-0.05-.25q-0.22-1-.39-2.07l0-.24q-0.07-.44-0.14-0.89l0-.17q-0.08-.53-0.15-1.06l0-.18c0-.3-0.08-0.57-0.11-0.87,0-.05,0-0.07,0-0.12-2.24-.12-4.46-0.24-6.6-0.28l-17.94,1.48,8,15.88Z" transform="translate(-337.45 -138.62)" style="fill:#213174"/><path d="M415.9,226.26a7.84,7.84,0,0,0,1.1-.19V226h0v0.07s0.43,0,.55,0l0.2,0H418v-0.21c-3-7-9.61-12.89-20.43-14.89h-0.16c-2.22,0-4.8-.8-7.38-1a54.55,54.55,0,0,0,4.5,5.8l0.18,0h-0.17c6.95,7.73,14.32,10.82,21.45,10.43" transform="translate(-337.45 -138.62)" style="fill:#213174"/><path d="M385.45,181.65c-1.82-.32-3.64-0.58-5.48-0.76,0.12,1.85.52,3.84,0.76,5.54h0a46.93,46.93,0,0,0,6,18c1.19,0,2.32.08,3.49,0.16h0.26l1.14,0.09,1.46,0.11,0,0h0.06l-0.28-.46,0.28,0.46a47.43,47.43,0,0,1,14.26,3.74l-0.06-.13-0.15-.34-0.15-.35-0.15-.37-0.14-.34-0.17-.42-0.12-.31-0.27-.74-0.08-.24-0.19-.54-0.11-.32-0.15-.47-0.11-.35-0.14-.46-0.11-.38-0.13-.46-0.11-.4-0.12-.46-0.1-.41-0.11-.46-0.1-.42-0.1-.47-0.09-.44-0.09-.47-0.09-.46-0.08-.46q-0.1-.59-0.2-1.19l0-.22c0-.2-0.06-0.4-0.09-0.6l-0.05-.38c0-.2-0.05-0.41-0.08-0.61l0-.39,0-.18s0-.2,0-0.2,0-.16,0-0.16h0s0,0.12-.06.09-0.09,0-.14,0S403.13,194,403,194l0.33,0.18-0.11-.05L403,194c-0.08-.05-0.13-0.1-0.21-0.15L403,194l0.23,0.14a1.13,1.13,0,0,1,.27.17l0.1,0.06a0.1,0.1,0,0,0,0,0l0,0-0.38-2.61-0.19,0h0c0-1.29,0-2.55,0-3.82a56.85,56.85,0,0,0-17.84-6.2s0.24,0,.24,0h0m0.65,5.6h0l0.37,0.08-0.37-.08h0Zm0.77,0.18,0.24,0-0.24,0-0.39-.06-0.25,0h0m0.45,2.84q0.2,0.85.44,1.69Q386.88,191,386.68,190.19Z" transform="translate(-337.45 -138.62)" style="fill:#213174"/><path d="M355.17,247l3,1.57,0.47-.57,0.15-.18q0.54-.65,1.08-1.27l0.1-.12,1-1.1,0.2-.22c0.37-.4.73-0.79,1.11-1.17l0,0,1.06-1.06,0.24-.23q1.13-1.09,2.3-2.12l0.25-.21,1.14-1,0,0,1.24-1,0.23-.18,1.16-.87,0.11-.08,1.32-.93,0.17-.12,0.45-.31-0.25-.14,0.17-.09L371.1,235l-0.12-.09q-1.08-.74-2.06-1.48l-0.11-.08-0.9-.7-0.07-.05-0.95-.77,0,0-0.85-.72-0.12-.11q-0.86-.75-1.66-1.52l-0.11-.11-0.72-.71-0.07-.07-0.78-.8,0,0-0.69-.75-0.11-.12q-0.73-.81-1.43-1.66l-0.08-.1-0.68-.84h0q-0.72-.91-1.42-1.86h0c-2,1-4,2.08-5.82,3.11l-14.8,10.25,14.83,9.77Z" transform="translate(-337.45 -138.62)" style="fill:#213174"/><path d="M383.16,229.62A51.52,51.52,0,0,1,391,227a43.1,43.1,0,0,1,6.43-1.41A41.22,41.22,0,0,1,387.12,215h0v0.17m0,0V215h0a1,1,0,0,1,0,.12l-0.11.08-1.48-2.14c-0.73-1.08-1.41-2.12-2.06-3.19A56.34,56.34,0,0,0,365,213.37c-1.74.64-3.45,1.35-5.14,2.11,1.09,1.63,2.14,3.12,3.21,4.53a47.19,47.19,0,0,0,14.29,12.57l3.15-1.76c0.88-.43,1.76-0.91,2.63-1.28" transform="translate(-337.45 -138.62)" style="fill:#213174"/><path d="M380.3,267.44l0.17-.35h-0.11l0.11-.19h-0.16l-0.94-.06-0.38,0-1-.09H377.8l-1.14-.13-0.34,0-0.85-.11-0.31,0-1.07-.17-0.28-.05L373,266l-0.36-.07-0.85-.18-0.27-.06-0.89-.21-0.38-.1-0.65-.17-0.37-.1-0.9-.26-0.39-.12-0.59-.18-0.43-.14-0.63-.21-0.56-.2-0.62-.22-0.44-.17-0.54-.21-0.42-.16-0.85-.35-0.4-.17-0.58-.25-0.23-.1c-1.22,1.88-2.38,3.77-3.48,5.61l-7.69,16.27,17.73,1.05,3.3-.14,3.36-.14,0.09-.57L375,284q0.13-.76.28-1.51l0.07-.34q0.13-.63.26-1.25l0.09-.4c0.11-.5.23-1,0.36-1.5l0-.16q0.17-.68.36-1.35l0.1-.37q0.43-1.49.92-2.94l0.12-.35q0.23-.66.48-1.32l0-.13q0.27-.71.56-1.42l0.14-.35q0.25-.59.51-1.19l0.11-.26q0.31-.69.63-1.37Z" transform="translate(-337.45 -138.62)" style="fill:#213174"/><path d="M363.16,251.12c-1.19,1.42-2.31,2.89-3.39,4.39,1.75,0.86,3.41,1.63,5,2.31a47.21,47.21,0,0,0,18.69,3.74c0.66-1.09,1.35-2.16,2.06-3.21v0l0.08-.12,1.4-2.06h0.07l0,0H383.5l-0.91,0h0l0.91,0h2.89l0.77,0,0.14-.19,0.38-.5,0.24-.31,0.36-.46,0.23-.29,0.54-.66,0.23-.28,0.34-.41,0.27-.31,0.32-.36,0.26-.3,0.39-.43,0.35-.38,0.37-.39,0.27-.28,0.31-.32,0.27-.27,0.34-.33,0.26-.25,0.51-.48,0.26-.24,0.31-.28,0.28-.25,0.31-.27,0.27-.23,0.52-.43,0.28-.23,0.29-.23,0.31-.24,0.25-.2,0.32-.24,0.2-.15,0.32-.24a44.67,44.67,0,0,1-10.19-2.34q-2-.67-4-1.53l-0.58.31,0.57-.31-0.06,0h0l-0.41-.2c-0.74-.32-1.49-0.66-2.24-1l-1-.53c-0.73-.37-1.45-0.75-2.17-1.14A56.31,56.31,0,0,0,363.16,251.12Zm5.22,2.28,0.51-.56-0.5.56,0.14,0.05-0.14-.05h0Z" transform="translate(-337.45 -138.62)" style="fill:#213174"/><path d="M414,234.83c-6-4-14-5.12-24-2h0s0,0,0,0,0,0,0,0h0a69.66,69.66,0,0,0-6.89,2.8,69.42,69.42,0,0,0,6.89,2.79h0a1.26,1.26,0,0,0,.2.25s-0.14.24,0.14,0.24h0c9.63,3,17.83,1.81,23.78-2.2,0.42-.28.75-0.68,1.15-1C414.88,235.5,414.38,235.11,414,234.83Z" transform="translate(-337.45 -138.62)" style="fill:#213174"/><path d="M407.17,307.26q-0.27-.72-0.52-1.44l-0.11-.33q-0.2-.6-0.4-1.21l-0.13-.4q-0.23-.74-0.44-1.47l-0.05-.19q-0.18-.66-0.35-1.32l-0.1-.39c-0.12-.5-0.24-1-0.36-1.49h0c-0.11-.49-0.21-1-0.31-1.48l-0.08-.39q-0.13-.67-0.24-1.35l0-.16q-0.12-.75-0.22-1.5l-0.05-.38q-0.08-.64-0.16-1.29l0-.26q-0.08-.76-0.14-1.53l0-.33c0-.19,0-0.37,0-0.56l-0.21.12v-0.05l-0.24.09-0.18.09-0.35.21,0.33-.2-0.55.27-0.13.06q-1.17.56-2.3,1l-0.16.07-1,.41-0.13.05-1.11.42-0.08,0-1,.35-0.19.07q-1.07.36-2.12,0.67l-0.18.05-0.94.26-0.12,0-1.07.27-0.09,0-1,.22-0.19,0q-1,.22-2.1.4l-0.22,0-0.89.14-0.19,0-1,.14-0.26,0-0.78.09-0.21,0c-0.12,2.22-.17,4.45-0.21,6.6L386,319.78l15.88-8,2.74-1.74,2.88-1.83-0.2-.54Z" transform="translate(-337.45 -138.62)" style="fill:#213174"/><path d="M380.44,284.7v0h0c-0.27,1.6-.47,3.06-0.64,4.56l-0.07.66,0,0.26,2.43-.18h0.12L383,290l0.95-.1,0.34,0,0.55-.08,0.33,0h0m0,0c0.76-.08,1.32-0.18,1.94-0.28a48.2,48.2,0,0,0,15.6-5.54c0.17-.09.21-0.17,0.37-0.26H403l0.13,0.39h0c0-1-.09-0.68-0.09-0.82h0c0-1,0-2,.06-2.94,0-.14-0.06-0.28-0.06-0.42v0c0-.05.24-0.1,0.24-0.16l0.29-2.47,0.11-.06a0.41,0.41,0,0,1,0-.09h0a0.52,0.52,0,0,0-.15.13l0.16-.08V277c0-.27.07-0.53,0.1-0.8l0-.23c0-.3.08-0.6,0.13-0.9l0-.11q0.08-.51.16-1v-0.06q0.08-.44.16-0.88l0.07-.33,0.12-.58,0.09-.4,0.11-.49,0.1-.44,0.1-.44,0.11-.46,0.1-.38,0.13-.48,0.09-.33,0.15-.52,0.07-.24,0.18-.58,0-.1a40.42,40.42,0,0,1,1.69-4.42l0,0-0.6.27-0.13.06-0.61.25-0.13.05-0.67.26-0.08,0-0.78.29h0l-0.75.26-0.28.09-0.51.17-0.34.11-0.47.14-0.38.11-0.46.13-0.39.11-0.47.12-0.4.1-0.49.12-0.39.09-0.54.12-0.36.08-0.64.13-0.28.06q-1.44.27-3,.48h-0.11l-0.93.12s0,0.21,0,.21,0,0.24,0,.24h0a0.69,0.69,0,0,0-.36.39c0.09-.16.19-0.37,0.29-0.55-0.1.17-.19,0.22-0.29,0.38s-0.12.16-.19,0.26c0.06-.1.12,0,0.19-0.11a0.66,0.66,0,0,1,.35-0.37h-0.06l0-.17-0.19-.09-2.24.13c-0.06,0-.12.05-0.18,0.06s0,0.07,0,.07h0l-1.22,0c0.41,0,.81-0.08,1.22-0.08-1.3,0-2.56.11-3.82,0.14a56.17,56.17,0,0,0-6.2,17.7" transform="translate(-337.45 -138.62)" style="fill:#213174"/><path d="M417.81,245.25l0-.25h0s0,0.13.07,0.08-0.09.11-.13,0.1c-0.53-.07-1.07-0.06-1.6-0.09l0,0c-7.13-.39-14.59,2.73-21.54,10.47h0.16l-0.18,0a54.35,54.35,0,0,0-4.49,5.78,54.28,54.28,0,0,0,7.25-1l1.13-1.37c-0.34.45-.68,0.78-1,1.23C408.31,257.92,414.86,252.31,417.81,245.25Z" transform="translate(-337.45 -138.62)" style="fill:#213174"/><path d="M483.87,295.33h0c-0.24,0-.35-0.06-0.53-0.09l0.21,0-0.09,0-0.1,0-0.51-.09-1.47-.27-0.41-.08-1.16-.24-0.47-.1-1.45-.35-0.28-.07-1.22-.33-0.44-.13-1.37-.41-0.17-.05-1.33-.44-0.43-.15-1.18-.43-0.26-.09-1.36-.54-0.43-.18-1.06-.46-0.36-.16-1.32-.61-0.44-.21-0.48-.23v0.13q0,0.56-.07,1.11l0,0.28q-0.1,1.25-.24,2.42l0,0.25q-0.06.5-.13,1l0,0.2q-0.08.57-.18,1.13l0,0.16c-0.05.32-.11,0.63-0.17,0.94l-0.05.27q-0.1.52-.21,1v0q-0.12.52-.24,1l-0.07.29-0.2.79-0.07.26q-0.13.49-.28,1l-0.08.27-0.23.72-0.11.34L463,304l-0.1.28-0.29.8-0.14.38-0.24.62-0.14.36-0.35.87-0.16.39-0.25.58-0.1.23c1.88,1.22,3.77,2.38,5.61,3.48l16.27,7.69L484.15,302l-0.14-3.3Q483.94,296.94,483.87,295.33Z" transform="translate(-337.45 -138.62)" style="fill:#213174"/><path d="M509,265.61l-1.87-2.95-0.57.21-0.41.15-1.46.52-0.33.11-1.2.4-0.41.13-1.46.44-0.22.06-1.28.34-0.41.11-1.46.35-0.08,0-1.42.3-0.43.08-1.27.23-0.24,0-1.45.22-0.46.06-1.15.14-0.39,0-1.44.14-0.51,0-0.35,0s-0.09,0-.13,0l0.13,0.27,0.33,0.68,0.22,0.45L489.6,269l0.14,0.32,0.43,1,0.15,0.36,0.31,0.75,0.13,0.31q0.2,0.51.39,1l0.09,0.24,0.29,0.82,0.1,0.3q0.17,0.49.32,1l0,0c0.11,0.34.21,0.68,0.31,1l0.07,0.26,0.23,0.84,0.05,0.2q0.13,0.51.25,1l0,0.17q0.1,0.43.19,0.86l0.05,0.25q0.21,1,.39,2.05l0,0.28q0.07,0.41.13,0.82l0,0.24c0,0.33.1,0.67,0.14,1,0,0.1,0,.21,0,0.31a5.82,5.82,0,0,1,.07.73h0c0,0.07,0,.14.05,0.21,2.24,0.12,4.46.17,6.6,0.21l18-1.48-7.95-15.88Z" transform="translate(-337.45 -138.62)" style="fill:#213174"/><line x1="144.55" y1="145.38" x2="144.55" y2="145.38" style="fill:#213174"/><path d="M482.8,284.17" transform="translate(-337.45 -138.62)" style="fill:#213174"/><path d="M487.23,284.84" transform="translate(-337.45 -138.62)" style="fill:#213174"/><path d="M488.76,285c0-.07-0.13-0.13-0.13-0.2-0.11-.89-0.28-1.6-0.42-2.36,0-.08-0.06-0.17-0.07-0.25a47.48,47.48,0,0,0-5.68-15.12c-1.26,0-2.54-.05-3.84-0.05h0s0-.13,0-0.13l-2.57,0s0,0.17-.07.17H476v-0.46l0,0h0l0.06,0.11a1.1,1.1,0,0,1,.12.21l0.16,0.26,0.17,0.28,0.59,1,0.56,1,0.16,0.29,0.41,0.75,0.13,0.24,0.47,0.9,0.14,0.29,0.32,0.65-0.32-.65-0.14-.29-0.47-.9-0.13-.24-0.41-.75-0.16-.29-0.56-1c-0.19-.34-0.39-0.66-0.59-1l-0.17-.25c-0.05-.09-0.1-0.2-0.16-0.3l-0.13-.21-0.05,0a1.21,1.21,0,0,1,.24.42,1.19,1.19,0,0,0-.24-0.42h0v0h0l0,0-0.24,0-0.14,0-0.84-.11H474.6q-1.27-.17-2.47-0.39l-0.26,0-0.53-.1-0.4-.08-0.48-.1-0.43-.09-0.45-.1-0.44-.11-0.43-.11-0.44-.11-0.41-.11-0.44-.12-0.4-.11-0.43-.13-0.38-.12-0.42-.14-0.37-.12-0.42-.15-0.68-.24-0.39-.14-0.42-.16-0.31-.12-0.42-.17-0.29-.12-0.42-.18-0.27-.12-0.16-.07,0.06,0.14,0.15,0.34,0.15,0.35,0.16,0.38,0.14,0.34,0.17,0.43,0.12,0.3,0.27,0.74,0.09,0.25,0.18,0.53,0.11,0.33,0.15,0.46,0.11,0.36,0.14,0.46,0.11,0.38,0.13,0.46,0.11,0.39,0.12,0.46,0.1,0.4,0.11,0.48,0.09,0.41,0.11,0.5,0.09,0.41,0.11,0.54,0.08,0.39c0,0.22.08,0.45,0.12,0.67l0,0.27q0.08,0.47.15,1l0,0.33c0,0.22.06,0.44,0.09,0.67l0,0.39,0.08,0.63,0,0.12,0,0v0h0a1.48,1.48,0,0,1,.67.42c-0.22-.14-0.4-0.27-0.67-0.41,0.28,0.14.41,0.28,0.63,0.41,0.07,0,.1.09,0.17,0.13l-0.21-.13-0.64-.39a0.15,0.15,0,0,0,0,0l0,0,0.36,2.6,0.18,0h0c0,1.3-.16,2.26-0.13,4.26h0v-0.22c0.9,0.5,2,.84,2.91,1.27A56.27,56.27,0,0,0,484,289.76h0s-0.19.11-.19,0.1l-0.09.15h0a1.22,1.22,0,0,1,.31-0.05c0.13,0,.25,0,0.38,0,0.6,0.09,1.2.13,1.81,0.21l-0.88-.11,0.94,0.13,2.21,0.27,0.64,0.07c0-.31,0-0.61-0.06-0.91s-0.06-.78-0.09-1.17c-0.1-1.15,0-2.27-.14-3.35A0.83,0.83,0,0,1,489,285v0h0" transform="translate(-337.45 -138.62)" style="fill:#213174"/><path d="M482.86,284.11" transform="translate(-337.45 -138.62)" style="fill:#213174"/><polyline points="145.35 145.58 145.35 145.46 145.35 145.46 145.35 145.46 145.35 145.46" style="fill:#213174"/><path d="M509.6,247.2l0.58,0.75,0.23,0.31,0.41,0.54L511,249c2-1,4-2.08,5.82-3.11l14.8-10.25-14.83-9.77-2.89-1.51-3-1.58-0.52.64-0.06.08q-0.56.68-1.13,1.33l0,0q-0.53.61-1.08,1.2l-0.15.16q-1.11,1.21-2.26,2.33l-0.2.19q-1.14,1.11-2.33,2.15l-0.22.19-1.19,1h0l-1.25,1-0.21.16-1.19.89-0.08.06-1.33.94-0.16.11-0.55.38,0.07,0-0.05,0,0.06,0,0.89,0.59,0.28,0.19,0.87,0.61,0.12,0.09,0.92,0.67,0.3,0.23,0.64,0.49,0.28,0.22,0.81,0.66,0.27,0.22,0.57,0.48,0.31,0.27,0.59,0.53,0.29,0.26,0.62,0.58,0.3,0.29,0.46,0.46,0.28,0.28,0.65,0.67,0.27,0.29,0.43,0.47,0.29,0.32,0.48,0.54,0.31,0.36,0.48,0.57L509,246.4l0.4,0.5Z" transform="translate(-337.45 -138.62)" style="fill:#213174"/><path d="M485.53,261.37l0,0h0l-0.09-.12-0.16-.22Z" transform="translate(-337.45 -138.62)" style="fill:#213174"/><path d="M504,258c1.74-.64,3.35-1.34,5-2.1H509v-0.18c-1-1.62-2-2.71-3-4.71h0a30.87,30.87,0,0,1-5.28,2.24v0.1h0s0,0.07,0,.08h0l-0.92.31,0.91-.3-0.6-.72,0.6,0.72c1.73-.58,3.49-1.26,5.3-2.05a47.22,47.22,0,0,0-14.31-12.58c-1.1.61-2.23,1.19-3.4,1.76l-2.37,1.15-0.12-.06s0,0.17-.06.18,0,0.19.05,0.19h0a1.16,1.16,0,0,1,.57.15c-0.19-.1-0.38-0.29-0.57-0.39a47.92,47.92,0,0,1-14.15,3.86h0l0.56,0.4,0.18,0.13,0.41,0.31,0.2,0.15,0.44,0.36,0.14,0.11,0.59,0.49,0.11,0.1,0.48,0.42,0.17,0.15,0.46,0.41,0.14,0.13,0.6,0.57,0,0,0.57,0.56,0.15,0.15,0.46,0.47,0.15,0.15q0.6,0.63,1.2,1.3l0.12,0.14,0.48,0.55,0.14,0.17,0.54,0.64,0.05,0.06,0.62,0.76,0.06,0.08,0.54,0.69,0.12,0.15,0.54,0.72,0,0.05h0l0.7,0c-0.22,0-.64,0-0.64,0V256h0v0l0,0,0,0,1.45,2.14,0,0h0l0.35,0.52-0.34-.58,0.08,0.12-0.09-.14h0c0.19,0.28.38,0.58,0.57,0.88,0.42,0.64.83,1.28,1.23,1.92l0.17,0.23,0.09,0.12h0s0-.16,0-0.16,0-.2.06-0.2h0c0.31,0,.62.23,0.93,0.21,0.08,0,.16-0.09.23-0.09V261h0s0,0.22,0,.22,0,0.11,0,.11c0.41,0,.81-0.17,1.21-0.2,0,0,0-.14,0-0.14h0c0.35,0,.7.14,1,0.11,0.07,0,.14.08,0.21,0.08s0.07,0,.11,0l0.82-.06h0.19l0.42,0,0.69-.08,0.46-.06,0.65-.09,0.44-.06,0.77-.13,0.31-.05,1-.19,0.4-.08,0.64-.13,0.45-.1,0.59-.13,0.45-.11,0.6-.15,0.41-.11,0.94-.26,0.41-.12,0.57-.17,0.48-.15,0.49-.16,0.49-.16,0.47-.16,0.49-.17,0.46-.17L504,258l-0.24-.34L504,258h0Zm-16.2,3.38-0.95,0s0,0,0,0h0c0.41,0,.81,0,1.21,0C488,261.33,487.92,261.37,487.83,261.37Zm0.33,0h0Zm-0.49-18.62,1,0.58Zm1.43,18.55H488.9l0.29,0h0.18Zm5.14-6.17q1.31-.26,2.62-0.59Q495.55,254.88,494.24,255.13Zm4.57-3.83q0.62,0.67,1.21,1.36Q499.43,252,498.82,251.3Z" transform="translate(-337.45 -138.62)" style="fill:#213174"/><path d="M479,261.33a54.4,54.4,0,0,0-4.48-5.77l-0.49,0,0.49,0c-6.47-7.21-13.38-10.39-20.06-10.48q-0.67,0-1.33,0H453c-0.6,0-1.2.09-1.8,0.17a22,22,0,0,0,1.39,2.81c3.39,5.77,9.6,10.2,19.08,12.22l-0.52-.71,0.63,0.73A54.32,54.32,0,0,0,479,261.33Z" transform="translate(-337.45 -138.62)" style="fill:#213174"/><path d="M488.75,203.9l-0.19.39h0.11l-0.11.19h0l1.1,0.07,0.29,0q1.24,0.1,2.41.24l0.26,0,1,0.13,0.21,0,1.13,0.18,0.17,0,0.94,0.17,0.26,0.05,1.05,0.22h0l1,0.25,0.26,0.07,0.83,0.22,0.22,0.06,1,0.29L501,206.6l0.79,0.25,0.28,0.09,0.93,0.31,0,0,1,0.35,0.29,0.11L505,208l0.25,0.1,0.94,0.38,0.27,0.11,0.71,0.3,0.18,0.08c1.22-1.88,2.38-3.77,3.48-5.61l7.69-16.27L500.82,186l-3.1.13-3.56.15-0.1.57-0.08.46q-0.13.76-.27,1.51l-0.07.36q-0.12.61-.26,1.22l-0.1.43q-0.17.75-.35,1.48l-0.06.22q-0.17.65-.35,1.29l-0.11.4c-0.14.49-.28,1-0.44,1.46h0c-0.15.48-.31,1-0.48,1.45l-0.13.37q-0.23.66-.47,1.31l-0.05.14q-0.27.71-.56,1.42l-0.14.34q-0.25.61-.52,1.22l-0.1.22q-0.31.71-.65,1.41Z" transform="translate(-337.45 -138.62)" style="fill:#213174"/><path d="M488,215.34h-0.25l-1,0h-0.22l-0.9,0H483l-0.84,0h-0.23l-0.08.11-0.48.64-0.16.2-0.48.62-0.12.15-0.6.74-0.09.11-0.5.59-0.17.2-0.44.5-0.17.19L478,220l0,0-0.56.6-0.18.19-0.42.42-0.19.19-0.47.47-0.11.11-0.58.54-0.18.17-0.41.37-0.21.19-0.4.35-0.18.16-0.56.47-0.18.14-0.4.32-0.24.19-0.35.27-0.24.18-0.41.3-0.15.11a45.42,45.42,0,0,1,11.14,2.67l0.05,0,1.23,0.47,0.4,0.16,0.7,0.29,0.62,0.26h0c0.64-.34,1.27-0.5,1.89-0.86-0.62.36-1.25,0.24-1.89,1.24h0s0-.18.06-0.17l0.06-.13,2,0.93,0.35,0.14,0.07,0c1.14,0.55,2.24,1.11,3.33,1.71a56.3,56.3,0,0,0,14.24-12.26c1.19-1.42,2.31-2.89,3.39-4.39-1.75-.86-3.41-1.64-5-2.32a47.23,47.23,0,0,0-18.69-3.74c-0.66,1.08-1.34,2.15-2,3.2l0,0-0.16.23L482,215.21a0.76,0.76,0,0,0,.17,0h3.38l0.9,0h0.22l1,0H488l0.81,0.05,0.27,0-0.27,0Zm12.54,2.58,0.15,0.06h0l-0.4.45,0.4-.45Z" transform="translate(-337.45 -138.62)" style="fill:#213174"/><path d="M485.86,235.65a54.14,54.14,0,0,0-6.78-2.75l-0.89.3,0.78-.34c-9.59-3.1-17.4-2.18-23.31,1.48a22.12,22.12,0,0,0-1.92,1.33l0.05,0,0.07,0,0,0.06q0.56,0.43,1.14.82c6,4,14,5.13,24,1.9l-0.9-.38,1,0.34A54.36,54.36,0,0,0,485.86,235.65Z" transform="translate(-337.45 -138.62)" style="fill:#213174"/><path d="M461.83,164q0.3,0.8.57,1.59l0,0.11q0.25,0.73.48,1.46l0.08,0.24q0.49,1.56.88,3.12l0.07,0.26q0.39,1.55.7,3.11l0.05,0.26q0.3,1.56.51,3.13l0,0.25c0.06,0.49.13,1,.18,1.47,0,0,0,.08,0,0.12,0.06,0.53.12,1.07,0.16,1.61,0,0.08,0,.15,0,0.23s0.09,0.43.1,0.64h0l1-.49L467,181l1.08-.5h0l1.1-.48,0.25-.11,0.88-.36,0.21-.09,1.05-.41,0.17-.06,0.88-.31c0.09,0,.17-0.18.26-0.21a4,4,0,0,1,1-.46h0a3.76,3.76,0,0,0,1-.19c0.08,0,.17,0,0.25,0,0.28-.08.56-0.13,0.84-0.2l0.2,0,1-.25,0.18,0,0.86-.19,0.25-.05q1-.22,2.06-0.39l0.26,0,0.86-.14,0.2,0,1-.15,0.22,0,0.85-.1,0.16,0c0.12-2.23.17-4.46,0.21-6.6L483,151.59l-15.88,8-2.67,1.7-3,1.88,0.26,0.7Z" transform="translate(-337.45 -138.62)" style="fill:#213174"/><path d="M488.59,186.81c0.27-1.79.56-3.86,0.73-5.67-1.94.13-3.76,0.29-5.5,0.51l0.31,0.34-0.32-.34-0.4.06-0.12,0-0.86.12h-0.06l-0.1,0-0.43.07h-0.06l-1.09.19-0.62.12h0l-1.15.25-0.3.07-0.83.2-0.36.1-0.8.22-0.34.1-0.93.29-0.2.06c-0.8.26-1.6,0.55-2.42,0.87h0c-0.84.33-1.69,0.69-2.57,1.08h0l0,0-0.66.31-0.56.27v0l-0.11,0-0.05,0-0.15,0-0.3.15-0.11.1h0l-0.32.13-0.08,0-0.52.25c-0.14.08-.18,0.15-0.32,0.23a2.25,2.25,0,0,0-.94.56h0c0,0.17-.13.35-0.14,0.52s-0.09.65-.1,1c0,0.06,0,.12,0,0.19,0,0.3,0,.61-0.05.91s0,0.38,0,.57-0.08.23-.08,0.35,0.05,0.24.05,0.34l0,0.7-0.16,1.78c0-.18,0-0.35,0-0.39v-0.11c0.07-.65.11-1.3,0.16-2v0l-0.13,0,0.06,0c0,0.67-.08,1.33-0.15,2,0,0.1,0,.46,0,0.71l0,0,0,0.15-0.07.57-0.05.43c0,0.24-.07.47-0.1,0.71l0,0.28q-0.07.5-.16,1v0c-0.05.31-.11,0.62-0.17,0.93l0,0.23-0.14.71-0.06.28-0.14.64-0.07.29-0.15.61-0.07.29-0.15.59-0.07.27-0.16.59-0.07.25-0.18.61-0.07.22-0.21.66,0,0.13q-0.4,1.2-.85,2.31l-0.07.16-0.23.55-0.09.21-0.21.48,0,0.09,0.14-.06,0.35-.16,0.34-.15,0.38-.16,0.33-.14,0.43-.17,0.3-.12,0.74-.27,0.24-.08,0.53-.18,0.33-.11,0.46-.15,0.36-.11,0.45-.14,0.38-.11,0.46-.13,0.39-.1,0.47-.12,0.39-.1,0.49-.12,0.39-.09,0.53-.12,0.37-.08,0.61-.12,0.31-.06,0.9-.16h0l1-.16,0.11,0,0.9-.13,0.21,0,0.83-.1h0.07l0-.05h0l0,0,0.63,0,2-.08h0s0,0.17,0,.17V205h0l0.17-.14,0.21-.09v0a0,0,0,0,1,0,0h0l-0.42,0a0.82,0.82,0,0,0,.42-0.13h0l-0.69,0c0.33,0,.79-0.25,1.12-0.27s0.54-.29.74-0.29H480v0.2a5.89,5.89,0,0,1,.82-0.12c0.19,0,.16-0.08.35-0.08h0c0.13,0,.14.2,0.27,0.2a1.32,1.32,0,0,1,.56.19V204h0v0.19l0.2,0.1,0.12,0.06,0,0h0.28l0.36,0h0s-0.28-.21-0.27-0.22l-0.26-.19h0a54.85,54.85,0,0,0,6.13-17.4S488.59,186.81,488.59,186.81Zm-23,5c0-.06,0-0.12,0-0.18l0,0.35V191.8Zm-0.13,2.45h0l0-.08a0.12,0.12,0,0,1,0,.05l0,0h0Zm3-1.78,0.08,0-0.07,0h0Zm3.13-1.61-0.25.12-0.72.36-0.23.12h0l0.23-.12,0.72-.36m4.5,13.7h0a1.52,1.52,0,0,0,.37-0.6A1.53,1.53,0,0,1,475.84,204.68Zm2.83,0h0Z" transform="translate(-337.45 -138.62)" style="fill:#213174"/><path d="M477.88,204.66l0.67,0h0Z" transform="translate(-337.45 -138.62)" style="fill:#213174"/><path d="M477.18,204.71l0.69,0-1.3.06h0.6Z" transform="translate(-337.45 -138.62)" style="fill:#213174"/><path d="M478.57,204.68h0v0A0.1,0.1,0,0,0,478.57,204.68Z" transform="translate(-337.45 -138.62)" style="fill:#213174"/><polygon points="113.78 87.25 113.77 87.25 113.77 87.27 113.78 87.27 113.77 87.27 113.78 87.25" style="fill:#213174"/><path d="M451,225.89h0l0.12,0h0.06c0.55,0.08,1.4.27,2,.31l-0.23,0c7.14,0.39,14.61-2.6,21.56-10.35V216h0v-0.2c0.11-.12.22-0.27,0.32-0.4a44.6,44.6,0,0,0,3.95-5.12l0.07-.11,0.1-.16,0,0h0a51.13,51.13,0,0,0-6.1.78c-0.38.08-.76,0.16-1.13,0.25h0l-0.56.59c0.15-.2.18-0.39,0.33-0.59C460.61,213.34,454,218.83,451,225.89Z" transform="translate(-337.45 -138.62)" style="fill:#213174"/><path d="M422.38,160l1.2,1,0.25,0.22,0.94,0.84,0.33,0.3,1.1,1,0.19,0.19,0.9,0.9,0.32,0.33,1,1,0.1,0.11,0.95,1.06,0.29,0.33,0.84,1,0.14,0.17q0.47,0.58.93,1.17l0.25,0.32,0.76,1,0.18,0.24q0.44,0.61.87,1.23l0.22,0.32,0.31,0.45,0-.07,0,0.05,0,0,0.63-.94,0.16-.23q0.71-1,1.42-2l0.15-.2,0.6-.78,0.13-.16,0.72-.89,0.1-.12,0.64-.75,0.16-.18q0.73-.84,1.48-1.62l0.15-.16,0.66-.66,0.11-.11,0.78-.75,0.09-.09,0.7-.65,0.15-.14q0.8-.72,1.63-1.4l0.14-.12,0.77-.62,0.08-.06,0.89-.69,0.06,0,0.84-.63,0.06,0c-1-2-2.08-3.95-3.11-5.82l-10.25-14.8-9.78,14.83-1.49,2.84-1.6,3.07,0.5,0.41Z" transform="translate(-337.45 -138.62)" style="fill:#213174"/><path d="M414.1,188.32l0.11,0.08,0.48,0.36L415,189l0.5,0.39,0.29,0.23,0.75,0.61,0.23,0.19,0.51,0.43,0.3,0.26,0.41,0.36,0.31,0.28,0.38,0.34L419,192.4l0.36,0.34,0.3,0.29,0.34,0.34,0.29,0.29,0.33,0.34,0.27,0.28,0.33,0.35,0.25,0.27,0.34,0.38,0.22,0.24,0.41,0.47,0.13,0.15,0.51,0.61,0.15,0.18,0.35,0.43,0.18,0.23L424,198l0.18,0.24,0.27,0.37,0.07,0.1,0-.19,0-.26c0-.16,0-0.32.05-0.48l0-.27,0.06-.49,0-.26q0.13-.84.29-1.71l0.07-.35,0.09-.42,0.09-.4,0.09-.41,0.1-.43,0.1-.4,0.11-.44,0.11-.4,0.13-.46,0.11-.39,0.14-.48,0.12-.39,0.16-.51,0.12-.37,0.19-.57,0.11-.32,0.27-.76,0.05-.14,0.35-.92,0.09-.23,0.28-.7,0.13-.32c0.09-.21.14-0.41,0.23-0.62,0,0,.06-0.2.08-0.24l1.14-2.35v0h0c0.56-1.17,1.15-2.29,1.75-3.4a56.3,56.3,0,0,0-12.25-14.24c-1.42-1.19-2.89-2.31-4.39-3.39-0.86,1.75-1.63,3.41-2.31,5a47.22,47.22,0,0,0-3.74,18.69c1.08,0.65,2.14,1.33,3.22,2.06Zm14.1-3.92,0.12,0h0Zm0.14,0h0Z" transform="translate(-337.45 -138.62)" style="fill:#213174"/><polygon points="76.6 49.67 76.64 49.7 76.59 49.67 76.6 49.67" style="fill:#213174"/><path d="M408.81,191.24a59.32,59.32,0,0,0,.94,7.22l0.07,0c2.31,11,8,17.54,15.05,20.49l0.13,0v0s0,0,0,.06-0.05-.09,0-0.13c0-.27,0-0.54.06-0.81v-2.54c0-.17,0-0.33,0-0.5a22,22,0,0,0-.73-4.65c-1.32-5-4.45-9.93-9.74-14.67,0,0.29.05,0.59,0.08,0.88l-0.1-.9A54.43,54.43,0,0,0,408.81,191.24Zm6.47,10.21,0,0-0.14-1.19C415.16,200.64,415.21,201,415.28,201.45Z" transform="translate(-337.45 -138.62)" style="fill:#213174"/><path d="M460,184.64h0a50.1,50.1,0,0,0-.29-6.41c-0.14-1.08-.26-2.14-0.46-3.18a58.45,58.45,0,0,0-2.48-8.83l-0.27.2c0.11-.08.22-0.25,0.33-0.32l0.09-.09H457v0.18a53.46,53.46,0,0,1-2.19-5.13c-1.62,1.09-3.16,2.13-4.57,3.21,0,0,0,.1,0,0.15l-0.07-.15a47.25,47.25,0,0,0-12.59,14.31c0.61,1.1,1.18,2.22,1.74,3.38v0l0.06,0.14,1.08,2.23,0,0.06,0,0.06h0l0,0.06,0.35,0.83,0.05,0.12q0.6,1.45,1.08,2.84l0,0.11,0.27,0.78,0.07,0.23,0.21,0.65,0.08,0.28,0.18,0.59,0.09,0.3,0.15,0.56,0.08,0.31,0.14,0.54,0.08,0.32,0.12,0.53,0.07,0.31,0.12,0.54,0.06,0.28,0.12,0.63,0,0.18q0.07,0.4.14,0.79l0,0.26L444.2,197l0,0.33,0.06,0.44,0,0.34,0,0.42v0.13l0.1-.14,0.19-.26,0.26-.35,0.21-.28,0.25-.33,0.25-.31,0.24-.3,0.45-.55,0.23-.27,0.35-.4,0.24-.26,0.32-.36,0.26-.28,0.32-.34,0.28-.29,0.33-.33,0.29-.29,0.33-.33,0.31-.3,0.34-.32,0.33-.3,0.35-.31,0.34-.31,0.35-.31,0.36-.32,0.34-.29,1-.79,0.16-.13,0.46-.36,0.32-.25,0.46-.35,0.41-.32s0.2,0.11.2-.16V188h-0.25s0,0,0,0,0,0.12,0,.12,0.07-.17.07-0.29v0c0,0.1,0,.21,0,0.31l0,0,2.15-1.45,0.05,0h0l0,0-0.07,0c0.45-.31.79-0.61,1.26-0.91S460,185,460,184.66h0v0ZM452.39,170h0l0.09,0.29Zm2.5,17.41v0l0,0v0A0.05,0.05,0,0,1,454.89,187.43Z" transform="translate(-337.45 -138.62)" style="fill:#213174"/><path d="M437.16,191.16l-0.33.79a5,5,0,0,1,.33-0.79,58,58,0,0,0-2.69-6.82,54.26,54.26,0,0,0-2.75,6.78l0,0.06,0,0c-2.46,7.53-2.44,14-.56,19.26a21.77,21.77,0,0,0,1.68,3.63l0.16,0.22,0.56,0.94c0.3,0.44.6,0.87,0.93,1.29C439.23,210.35,440.67,201.88,437.16,191.16Z" transform="translate(-337.45 -138.62)" style="fill:#213174"/><path d="M444.11,219l0.14-.06h0c5.67-2.32,8.09-9,9.25-15.84h0c-1.17,6.81-3.58,13.55-9.24,15.87v0h0a1.13,1.13,0,0,0,.36-0.18l0.32-.15,0.47-.23,0.3-.15,0.33-.17,0.26-.14,0,0,0.41-.23,0.15-.09,0.19-.11,0.59-.37h0L448,217l0.33-.23,0.38-.27,0.52-.39,0.63-.51,0.2-.17,0.11-.1,0.41-.36,0.26-.25,0.33-.31,0.25-.25,0.51-.53,0.17-.19,0.39-.44,0.18-.22,0.52-.64a31.71,31.71,0,0,0,5.57-12c0.13-.52.25-1,0.35-1.59l-0.1.07h0l0.13-.09a54.42,54.42,0,0,0,1-7.26,54.29,54.29,0,0,0-5.77,4.49l0,0.22,0-.22C446,203.22,443.06,211.36,444.11,219Z" transform="translate(-337.45 -138.62)" style="fill:#213174"/><path d="M446.61,311.33l-1.13-1-0.33-.29-0.86-.77-0.36-.33-1.08-1-0.2-.2-0.9-.9-0.31-.32q-0.52-.54-1-1.09l0,0c-0.33-.36-0.66-0.73-1-1.11l-0.26-.3-0.89-1.05-0.1-.12q-0.48-.59-1-1.2l-0.22-.29-0.8-1.07-0.14-.19q-0.46-.63-0.9-1.27l-0.18-.26-0.33-.49,0,0.07,0-.05,0,0-0.63.95-0.15.22q-0.71,1-1.42,2l-0.15.2-0.6.78-0.13.16-0.72.89-0.11.13-0.62.73-0.18.2-0.71.8h0l-0.73.78-0.2.2-0.59.6-0.17.17-0.73.71-0.18.17-0.58.54-0.24.22-0.67.59-0.15.13-0.7.59-0.29.24-0.54.44-0.28.22-0.76.59-0.32.24-0.51.39-0.2.15c1,2,2.08,4,3.11,5.82l10.25,14.8,9.78-14.83,1.47-2.83,1.61-3.09-0.41-.33Z" transform="translate(-337.45 -138.62)" style="fill:#213174"/><path d="M414.66,275.67c7.57-6.8,10.68-14.09,10.44-21.08a3,3,0,0,0,0-.31s0-.28,0-0.28h0s0,0.48,0,.47h0s0-.47,0-0.47h0s0-1.17,0-1.84v0.09a0.68,0.68,0,0,1-.16.1l0,0v0c-7.08,3-12.59,9.57-14.9,20.52l0.06,0-0.07.06a54.34,54.34,0,0,0-1,7.25,54.29,54.29,0,0,0,5.77-4.49" transform="translate(-337.45 -138.62)" style="fill:#213174"/><path d="M455,283.16v0.06a0.16,0.16,0,0,1,0,0h0v0.54c0,0.1,0,.2,0,0.31s0,0.43,0,.64V285c0,0.07,0,.15,0,0.22,0-.37,0-0.74,0-1.11,0-.11,0-0.22,0-0.33s0-.12,0-0.17,0-.34,0-0.52c0,0.23,0,.46,0,0.69,0-.24,0-0.48,0-0.73l-0.18-.13-0.19-.14,0.19,0.13a0.35,0.35,0,0,0,.16.1h0a0.36,0.36,0,0,1-.16-0.1l-0.19-.14,0.19,0.15-0.19-.14-0.61-.46-0.12-.09q-1-.76-1.89-1.53l-0.2-.17-0.42-.36-0.3-.26-0.37-.33-0.32-.29L450,279l-0.33-.31-0.31-.3L449,278l-0.29-.28-0.34-.35-0.26-.27-0.35-.37-0.23-.25-0.36-.4-0.19-.22-0.44-.51-0.1-.11-0.51-.62-0.15-.19-0.34-.42-0.2-.26-0.27-.35-0.22-.29-0.23-.31-0.09-.12v0.13l0,0.44,0,0.33c0,0.15,0,.29-0.06.44l0,0.33-0.07.46,0,0.32c0,0.22-.08.45-0.12,0.68l-0.08.42-0.09.48-0.08.39-0.09.42-0.09.41-0.1.42-0.1.42-0.11.42-0.11.43-0.12.42-0.12.43-0.13.43-0.13.44-0.14.44-0.14.44-0.15.45-0.15.45-0.17.47-0.28.75-0.22.57-0.19.48-0.18.45-0.21.5-0.18.44-0.06.15c0.1,0.18.2,0.41,0.29,0.59a2.67,2.67,0,0,0-.09-0.5H441v-0.09s-0.22,0-.23.06l-0.07.07-1.2,2.37c-0.57,1.17-1.17,2.29-1.78,3.4A56.21,56.21,0,0,0,450,307c1.42,1.19,2.88,2.31,4.39,3.39,0.86-1.75,1.63-3.41,2.31-5a47.24,47.24,0,0,0,3.74-18.69c-1.09-.66-2.17-1.35-3.23-2.07Zm-2.77,18.66h0l-0.51-.46,0.51,0.46,0-.05ZM455,285.25h0v0Zm0,1.13c0,0.12,0,.23,0,0.35,0,0.28,0,.55,0,0.83v0.29c0,0.34,0,.67,0,1,0,0.11,0,.22,0,0.34s0,0.47,0,.7,0,0.24,0,.35c0-.12,0-0.24,0-0.35s0-.46,0-0.7,0-.22,0-0.34q0-.49,0-1c0-.1,0-0.2,0-0.29q0-.41,0-0.83c0-.12,0-0.23,0-0.35,0-.37,0-0.74,0-1.12C455,285.64,455,286,455,286.38Z" transform="translate(-337.45 -138.62)" style="fill:#213174"/><path d="M436.37,257.68a22,22,0,0,0-1.83-2.77A22,22,0,0,0,433,257.2c-3.47,5.89-4.28,13.61-1.19,23l0.2-.44-0.2.46a54.28,54.28,0,0,0,2.76,6.77,54.36,54.36,0,0,0,2.75-6.78l-0.09-.21,0.09,0.2C440.31,271.07,439.61,263.5,436.37,257.68Zm-2,16.39,0.12-.32v0Z" transform="translate(-337.45 -138.62)" style="fill:#213174"/><path d="M460.22,280.14a54.24,54.24,0,0,0-1-7.25l-0.05,0,0,0c-2.31-11-7.84-17.55-14.93-20.5v0.07l-0.14-.06v0.05q-0.13,1-.17,2c-0.27,7,2.85,14.36,10.47,21.2l0-.43,0.06,0.44A54.26,54.26,0,0,0,460.22,280.14Z" transform="translate(-337.45 -138.62)" style="fill:#213174"/><path d="M418.84,307.12a47.22,47.22,0,0,0,12.58-14.32c-0.61-1.12-1.2-2.26-1.75-3.39h0l0-.06L428.51,287l0,0a0.76,0.76,0,0,1,.21,0H429v-0.08c-1,.17-0.42.34-0.52,0.51,0.09-.17.07-0.34,0.16-0.51s-0.09-.07-0.1-0.1c-0.1-.22-0.22-0.44-0.31-0.66s-0.09-.19-0.13-0.28c-0.11-.26-0.22-0.52-0.32-0.78l-0.06-.15c-0.12-.32-0.25-0.63-0.36-0.94h0l-0.33-.9-0.08-.25-0.22-.65-0.1-.31-0.18-.58-0.1-.33-0.16-.54-0.1-.34-0.15-.53-0.09-.33-0.13-.53-0.08-.32-0.13-.54-0.07-.3L425.3,277l-0.05-.24q-0.08-.37-0.14-0.74v-0.07c0-.27-0.1-0.54-0.14-0.81l0-.14q-0.05-.32-0.1-0.64l0-.24-0.07-.53,0-.27-0.05-.49V272.7l-0.09.12-0.23.32-0.21.29-0.28.37-0.19.24-0.37.47-0.12.15-0.52.63h0l-0.53.61-0.15.16-0.42.46-0.19.2-0.39.42-0.21.22-0.39.4-0.23.23-0.4.4-0.24.23L419,279l-0.25.23-0.45.41-0.24.21-0.52.46-0.2.17-0.73.62h0l-0.78.64-0.12.1-0.67.53-0.23.17c-0.2.15-.48,0.3-0.68,0.45l-0.16,0h0l-2.08,1.53s0,0.05,0,.08h0c-1,.71-2.1,1.4-3.18,2.06a56.2,56.2,0,0,0,3.4,18.17H412a0.66,0.66,0,0,0,.06,0c0.14,0.3.3,0.88,0.43,1.17,0.39,0.91.75,1.81,1.13,2.71,0.15,0.36.31,0.55,0.48,0.91a0.55,0.55,0,0,0,0,.22H414v0.33h0.29c1.62-1.08,3.12-2.12,4.52-3.19" transform="translate(-337.45 -138.62)" style="fill:#213174"/></svg>