<svg id="Ebene_1" data-name="Ebene 1" xmlns="http://www.w3.org/2000/svg" xmlns:xlink="http://www.w3.org/1999/xlink" viewBox="0 0 2854.24 834.24"><defs><style>.cls-1{fill:none;}.cls-2{fill:#fff;}.cls-3{clip-path:url(#clip-path);}.cls-4{fill:#f2b826;}.cls-5{fill:#1d1d1b;}</style><clipPath id="clip-path"><rect class="cls-1" x="9.85" y="11.76" width="2834.53" height="810.71"/></clipPath></defs><title>peerigon-logo-flat-whiskey</title><path class="cls-2" d="M415.8,765.13c192.38,0,348.33-156,348.33-348.34S608.18,68.46,415.8,68.46,67.46,224.41,67.46,416.79s156,348.34,348.34,348.34Z"/><g class="cls-3"><path class="cls-4" d="M433,520.56Q401,543.63,369.15,567L227.92,322.34l131-75.62c35.77-20.65,67.73-25.76,92.4-14.82,30.49,13.55,46.74,49.3,37,81.4-3.91,12.89-12,28.91-58.9,56-21.32,12.32-56.9,33.07-56.9,33.07l-5.79,3.38L433,520.56Z"/><path class="cls-4" d="M783.85,250.52c-44.4-98.59-124.55-174-225.67-212.29S347.1,3.29,248.49,47.71,74.51,172.26,36.2,273.38,1.26,484.47,45.68,583.06,170.23,757,271.35,795.35A402.24,402.24,0,0,0,581,785.89C784.55,694.2,875.54,454,783.85,250.52ZM564.21,501.59c-12.11-2.17-24.28.5-35.17,7.89-5.32,3.59-15.5,10.82-30.26,21.48L359.53,631.58l-6,4.42L162.15,304.7l5.82-3.36s125.46-72.57,142.73-82.5c3.1-1.8,6.22-3.63,9.33-5.47l.92-.54c10.77-6.36,21.92-12.94,33.72-18.3,20.11-9.12,46.83-19.3,74.5-17.7a118,118,0,0,1,69.11,27.72c40.4,33.92,51.27,95.45,25.28,143.12C510.13,372.28,488.41,388,469,400.19c-12.17,7.58-24.79,14.65-37,21.48l40.28,69.75,1.29-.93c10.91-7.95,23.28-17,36.1-24.5,36.11-21.1,84.18-15,114.31,14.61,31.63,31.06,35.88,82.93,9.66,118.07-17.73,23.82-46.72,38-77.55,38a100.9,100.9,0,0,1-42.5-9.33c-16-7.37-28.14-18.86-40.56-38.44l41.6-24.2A49.23,49.23,0,0,0,548.4,588a48.5,48.5,0,0,0,35.23-6.77,42.15,42.15,0,0,0,19-27.94c4.35-23.82-12.88-47-38.4-51.67Z"/></g><path class="cls-5" d="M1084.9,285.72c-21.58,0-50.7,8.77-67.68,33.36l-3.83,5.53-4-34.09H964.46V590.28h48.13V469.1l4.67,7.21c14,21.65,45,29.37,69.39,29.37,63.43,0,106-44.2,106-110,0-63.73-45.33-110-107.8-110ZM1081,459.28c-36.26,0-63.59-27.33-63.59-63.58,0-37.44,26.14-63.59,63.59-63.59s63.59,26.15,63.59,63.59c0,36.25-27.34,63.58-63.59,63.58Z"/><path class="cls-5" d="M1841.75,314.19l-3.59,5.77-4.65-29.44h-44.58V500.44h48.14V389.6c0-35.72,21-57.05,56.17-57.05,17.45,0,27.67,4.75,37.57,12.55l21.67-41.77c-12.18-11.28-32.45-18.48-52.26-18.48-20.88,0-42.4,3.56-58.47,29.34Z"/><path class="cls-5" d="M2013.21,198.83c-13.89,0-28.86,8.93-28.86,28.54s15,28.53,28.86,28.53,28.86-8.93,28.86-28.53-15-28.54-28.86-28.54Z"/><polygon class="cls-5" points="1989.15 500.44 2037.28 500.44 2037.28 289.65 1989.15 289.65 1989.15 500.44 1989.15 500.44"/><path class="cls-5" d="M2278.32,269.7,2257,296.64l-1.94-1.32c-15.43-10.44-33.68-11.78-47.87-11.78-62.7,0-106.48,43.79-106.48,106.49,0,65.14,40.8,105.61,106.48,105.61,27.48,0,57.05,14.31,57.05,45.71,0,29.17-22.93,48.76-57.05,48.76-32.48,0-57.23-19.69-58.72-46.22h-47.73c1.32,53.64,44.72,90.87,106.45,90.87,62.92,0,105.19-37.54,105.19-93.41,0-32.69-13.29-53.91-43.09-68.81l-4.73-2.38,4.82-2.2c40.71-18.59,43.87-64.35,43.87-77.93,0-24.94-7.21-45.22-22.05-62l-1.4-1.58,23.7-30.16-35.2-26.6Zm-71.11,182.61c-34.61,0-58.79-25.61-58.79-62.28s24.72-63.15,58.79-63.15c33.82,0,58.36,26.56,58.36,63.15,0,36.09-24.54,62.28-58.36,62.28Z"/><path class="cls-5" d="M2473.18,286.16c-63,0-108.65,46.07-108.65,109.54,0,64.5,44.86,109.54,109.1,109.54,64.49,0,109.54-45,109.54-109.54,0-63.47-46.25-109.54-110-109.54Zm.45,175.31c-41.9,0-61-34.09-61-65.77,0-32.9,20.94-66.2,61-66.2,38.16,0,61,33.66,61,66.2,0,31.68-19.08,65.77-61,65.77Z"/><path class="cls-5" d="M2755.77,287c-25.37,0-46.61,9.73-68.87,31.55l-3.68,3.6-3.83-32.1h-42.75V500.44h47.7V393.08c0-35.75,24.71-62.71,57.48-62.71,33.07,0,54.43,23.59,54.43,60.1v110h48.13V390c0-61.61-35.61-103-88.61-103Z"/><path class="cls-5" d="M1356.35,463.2c-37.2,0-62.73-18.39-66.62-48l-.38-2.86h168.48c3.47-41.62-5.24-75.17-25.25-97.13-18.36-20.16-46.38-30.81-81-30.81-66.82,0-111.72,44.2-111.72,110,0,69.18,44.31,112.15,115.64,112.15,32,0,68-10.06,88.65-29.06L1423,440.71c-19.1,15.15-42.35,22.49-66.65,22.49Zm-65.66-93.06c7.68-27.37,31.1-43.71,62.61-43.71,33.58,0,54.84,16.07,58.34,44.09l.35,2.84H1289.78l.91-3.22Z"/><path class="cls-5" d="M1628.8,463.2c-37.2,0-62.73-18.39-66.62-48l-.38-2.86h168.48c3.46-41.62-5.24-75.17-25.25-97.13-18.36-20.16-46.38-30.81-81-30.81-66.83,0-111.72,44.2-111.72,110,0,69.18,44.31,112.15,115.64,112.15,32,0,68-10.06,88.65-29.06l-21.13-36.76c-19.11,15.15-42.35,22.49-66.65,22.49Zm-65.66-93.06c7.68-27.37,31.09-43.71,62.61-43.71,33.57,0,54.84,16.07,58.33,44.09l.36,2.84H1562.22l.92-3.22Z"/></svg>