<svg xmlns="http://www.w3.org/2000/svg" viewBox="0 0 240 58"><defs><style>.cls-1{fill:#4d88c9;}.cls-2{fill:#fff;}</style></defs><title>jsh-logo-2022</title><g id="jsh-logo"><g id="jsh"><path class="cls-1" d="M20,8.56h9.71v27.7a13.3,13.3,0,0,1-1.8,6.88,12,12,0,0,1-5,4.68,15.4,15.4,0,0,1-7.15,1.66q-6.61,0-10.25-3.32T1.85,36.71h9.76a6.6,6.6,0,0,0,1,4A3.8,3.8,0,0,0,15.77,42a3.64,3.64,0,0,0,3.13-1.5A7.17,7.17,0,0,0,20,36.24V8.56ZM53.23,38.2a4,4,0,0,0-1.5-3.33,19.26,19.26,0,0,0-5.31-2.47,48.89,48.89,0,0,1-6.21-2.48c-5.24-2.56-7.84-6.09-7.84-10.59a9.52,9.52,0,0,1,2-5.91,12.78,12.78,0,0,1,5.53-4,21.44,21.44,0,0,1,8-1.42,18.86,18.86,0,0,1,7.8,1.55A12.51,12.51,0,0,1,61.06,14,11.5,11.5,0,0,1,63,20.55H53.25a4.87,4.87,0,0,0-1.5-3.83,5.9,5.9,0,0,0-4.09-1.35,6.7,6.7,0,0,0-4.12,1.15A3.51,3.51,0,0,0,42,19.44a3.59,3.59,0,0,0,1.67,2.82,21.38,21.38,0,0,0,5.84,2.6,36.38,36.38,0,0,1,6.88,2.9Q63,31.54,63,38.15a9.85,9.85,0,0,1-4,8.32c-2.66,2-6.32,3-10.95,3a21.87,21.87,0,0,1-8.89-1.75,13.33,13.33,0,0,1-6-4.83,12.5,12.5,0,0,1-2-7.06h9.76a6.21,6.21,0,0,0,1.69,4.79c1.12,1,2.92,1.52,5.44,1.52a6.23,6.23,0,0,0,3.82-1,3.49,3.49,0,0,0,1.37-2.92Z"/><path class="cls-2" d="M99.8,48.92H90.13V32.06H75.81V48.92H66.07V8.56h9.74v16H90.13v-16H99.8Zm18,.56c-4.61,0-8.32-1.37-11.17-4.11a14.18,14.18,0,0,1-4.27-10.73v-.78a18.36,18.36,0,0,1,1.7-8.12,12.54,12.54,0,0,1,5-5.44,15.07,15.07,0,0,1,7.76-1.93q6.31,0,10,3.91t3.67,10.93v3.64H111.83A6.6,6.6,0,0,0,114,40.8a6.44,6.44,0,0,0,4.38,1.44,8.38,8.38,0,0,0,6.93-3.1l4.27,5a11.91,11.91,0,0,1-5,3.84,16.43,16.43,0,0,1-6.88,1.46Zm-1.05-23.9c-2.75,0-4.37,1.82-4.88,5.44h9.42V30.3a4.57,4.57,0,0,0-1.15-3.48,4.4,4.4,0,0,0-3.39-1.24Zm34.46,1.8-3.08-.22q-4.41,0-5.66,2.76v19h-9.36v-30h8.77l.32,3.84c1.57-2.94,3.75-4.4,6.56-4.4a9.25,9.25,0,0,1,2.61.33Zm.5,6.27a17.66,17.66,0,0,1,1.75-8,12.56,12.56,0,0,1,5-5.4,15.09,15.09,0,0,1,7.69-1.88q6.74,0,10.61,4.18c2.56,2.76,3.87,6.56,3.87,11.35v.34c0,4.68-1.31,8.39-3.89,11.13s-6.12,4.11-10.55,4.11a13.94,13.94,0,0,1-10.27-3.84Q152,41.8,151.71,35.23Zm9.33.57c0,2.76.43,4.81,1.3,6.09a4.34,4.34,0,0,0,3.85,1.93c3.33,0,5-2.56,5.1-7.69v-.94c0-5.37-1.71-8.07-5.15-8.07q-4.68,0-5.08,7Zm37.1,15.26c-4.61,0-8.32-1.37-11.17-4.11a14.18,14.18,0,0,1-4.28-10.73v-.78a18.37,18.37,0,0,1,1.71-8.12,12.54,12.54,0,0,1,5-5.44,15.07,15.07,0,0,1,7.76-1.93q6.3,0,10,3.91t3.67,10.93v3.64H192.16a6.66,6.66,0,0,0,2.19,3.95,6.44,6.44,0,0,0,4.38,1.44,8.35,8.35,0,0,0,6.92-3.1l4.28,5A11.91,11.91,0,0,1,205,48a16.46,16.46,0,0,1-6.88,1.46ZM197,25.58c-2.74,0-4.36,1.82-4.88,5.44h9.43V30.3a4.57,4.57,0,0,0-1.15-3.48,4.45,4.45,0,0,0-3.4-1.24Zm32,14.91a2.13,2.13,0,0,0-1.24-1.91,19.21,19.21,0,0,0-4.74-1.51,20.8,20.8,0,0,1-5.76-2A9.82,9.82,0,0,1,213.86,32a7.36,7.36,0,0,1-1.19-4.14A8.36,8.36,0,0,1,216.09,21,14,14,0,0,1,225,18.34c4,0,7.13.9,9.54,2.7a8.43,8.43,0,0,1,3.6,7.06h-9.38c0-2.4-1.26-3.6-3.8-3.6a3.78,3.78,0,0,0-2.47.81,2.48,2.48,0,0,0-1,2.05,2.31,2.31,0,0,0,1.21,2,11.37,11.37,0,0,0,3.89,1.28,32.34,32.34,0,0,1,4.7,1.2c4.52,1.55,6.77,4.34,6.77,8.34a7.86,7.86,0,0,1-3.64,6.68A16.14,16.14,0,0,1,225,49.46a16.45,16.45,0,0,1-6.88-1.39,11.53,11.53,0,0,1-4.72-3.78,8.6,8.6,0,0,1-1.69-5h8.73a3.56,3.56,0,0,0,1.39,3,5.75,5.75,0,0,0,3.42,1,4.42,4.42,0,0,0,2.88-.79,2.41,2.41,0,0,0,.94-2Z"/></g></g></svg>