<svg viewBox="0 0 984.76 194.13" xmlns="http://www.w3.org/2000/svg"><g fill="#213174"><g transform="translate(-337.45 -138.62)"><path d="m586 238.61a62.8 62.8 0 0 1 4-23.11 47 47 0 0 1 10.68-16.67q13.22-12.94 33.76-12.94t33.76 12.74q14.65 14 14.66 39.65t-13.46 39.34q-13.46 13.73-35 13.73t-34.93-13.9q-13.47-13.91-13.47-38.84zm48.62 43.83a26.21 26.21 0 0 0 20.13-8.9q10.25-11.23 10.25-34.17t-8.77-33.76q-8.77-10.82-22.05-10.82t-21.78 10.78q-8.59 10.79-8.59 32.36 0 31 17 40.88a27 27 0 0 0 13.81 3.63z" stroke="#213174" stroke-miterlimit="10" stroke-width="3"/><path d="m775.28 272.24c2.16 3.28 3.55 4.72 4.77 6.41s2.23 2.36 7 5.35l2.76 1.21-1.67 4.79h-30.72l-1.82-2.24 1.82-2.52c2.34-3.09 3.87-6.35 2.58-9.58l-2.12-3.52-21-33.63-16.88 16.33v7.16c0 5.61-.34 10.19.59 13.42a29.75 29.75 0 0 0 4.91 9.82l1.82 2.52-1.82 2.24h-30.72l-1.68-4.77 3.23-.84q5.33-1.55 7.15-4.07t1.82-9v-64.39c0-4.3-.6-8-1.81-9.64s-3.6-3-7.15-4.07l-3.23-.84 1.68-4.77h30.71l1.82 2.24-1.82 2.52c-2.34 3.09-4.25 6.3-4.91 9.82-.72 3.84-.57 11-.57 16.62v24.39l38.29-37c2.42-2.58 4.95-5.54 4.95-7.36a17.45 17.45 0 0 0 -1.82-6.8l-1.26-2.52 2.66-2.24h25.38l1.68 4.72-3.23.84c-4.77 1.31-11.84 8.62-11.84 8.62l-27.91 27.27 28.35 43.49zm13.72-77.45" stroke="#213174" stroke-miterlimit="10" stroke-width="3"/><path d="m853.51 269.26a51.34 51.34 0 0 1 -5.34-13.49 63.85 63.85 0 0 1 -1.92-15.61 74.86 74.86 0 0 1 1.27-14.42 58.21 58.21 0 0 1 3.87-12.33 45.62 45.62 0 0 1 16.91-20q11.37-7.5 27.94-7.5t27.6 8.22q11 8.22 11 20.07 0 8.08-6.44 10.89a10.26 10.26 0 0 1 -4.25.89 9.63 9.63 0 0 1 -7.12-2.74 8.73 8.73 0 0 1 -2.74-6.37q0-7.26 5.82-10a19.66 19.66 0 0 0 -9.31-9.07 29.59 29.59 0 0 0 -13.49-3.32q-14.59 0-23.8 10.89t-9.18 32.63q0 21.74 9.59 33.11t23.28 11.37q11.16 0 17.29-5.62t6.13-12.36q0-6.74-3.08-8.49t-14.11-1.75v-9.11h31.37v44.85h-9.18l-2.53-8.22q-5.89 6.16-18.22 8.63a49.73 49.73 0 0 1 -10.27 1 55.7 55.7 0 0 1 -11.68-1.27 48.32 48.32 0 0 1 -11.33-3.94 43.86 43.86 0 0 1 -10-6.85 41.85 41.85 0 0 1 -8.08-10.09z" stroke="#213174" stroke-miterlimit="10" stroke-width="3"/><path d="m1040.06 238.61a62.8 62.8 0 0 1 4-23.11 47 47 0 0 1 10.68-16.67q13.22-12.94 33.76-12.94t33.76 12.74q14.65 14 14.65 39.65t-13.46 39.34q-13.46 13.73-35 13.73t-34.93-13.9q-13.46-13.91-13.46-38.84zm48.62 43.83a26.21 26.21 0 0 0 20.13-8.9q10.27-11.23 10.27-34.17t-8.77-33.76q-8.77-10.82-22.05-10.82t-21.81 10.79q-8.6 10.79-8.59 32.36 0 31 17 40.88a27 27 0 0 0 13.82 3.62z" stroke="#213174" stroke-miterlimit="10" stroke-width="3"/><path d="m1299.61 280.8a10.52 10.52 0 1 1 3.08 7.46 10.17 10.17 0 0 1 -3.08-7.46zm7.6-21.5q-.89-8.56-2-17.19-4-32.6-4.59-51.29-.21-4.93 9.66-4.93 7.19 0 9.18 2.19a3.8 3.8 0 0 1 .82 2.74q-.62 19.18-3 39.55t-3.32 28.93h-6.71z" stroke="#213174" stroke-miterlimit="10" stroke-width="3"/><path d="m1035.27 286.33q-5.75 5.61-12.76 5.61t-11.22-3.94q-4.21-3.92-8.27-12.48l-10.66-22.58c-.84-1.87-2.55-4.89-5.54-6a3.72 3.72 0 0 1 -2.66-3.79q0-2.8 2.24-2.8h2.87s-1.68 0 0 0q10.52 0 16.41-6t5.89-16.06q0-10.1-6.24-16.62t-17.25-6.52q-11 0-11 6.45v60.17a52.85 52.85 0 0 0 1.4 13.53 30 30 0 0 0 4.91 9.89l1.82 2.52-1.83 2.29h-30.72l-1.66-4.79 3.23-.84q5.33-1.4 7.15-4.07t1.82-9v-69.3q0-3.37-3.09-3.37h-8.11l-1.68-5.19a91.18 91.18 0 0 1 15.92-4.28 101 101 0 0 1 19-1.89q20.75 0 30.85 8.56t10.1 22.16a29.43 29.43 0 0 1 -5.75 18.09q-5.75 7.72-17 10.38a18.68 18.68 0 0 1 5.61 6.87l13 26.51q2.1 4.35 5 4.35a9.91 9.91 0 0 0 5.75-2z" stroke="#213174" stroke-miterlimit="10" stroke-width="3"/><path d="m1166.18 197.15a5 5 0 0 0 -1.47 3.79 24.45 24.45 0 0 0 1.54 7l22.86 70.41 20.9-65.22-1.4-4.49a32 32 0 0 0 -4.77-9.82 43.73 43.73 0 0 0 -7.85-7.29l1.82-2.24h31.56l1.68 4.77-3.23.84a10.87 10.87 0 0 0 -4.84 2.24 5 5 0 0 0 -1.47 3.79 24.48 24.48 0 0 0 1.54 7l22.86 70.41 19.63-61q2.66-8.42 2.67-13-.28-7.71-6.31-9.4l-3.23-.84 1.68-4.77h26.65l1.82 2.24-2.1 2.52a41.13 41.13 0 0 0 -7.71 14l-27.07 81.91h-16l-20.62-61.15-20.18 61.15h-16l-27.35-81.34a32 32 0 0 0 -4.77-9.82 43.73 43.73 0 0 0 -7.85-7.29l1.82-2.24h31.56l1.68 4.77-3.23.84a10.87 10.87 0 0 0 -4.82 2.23z" stroke="#213174" stroke-miterlimit="10" stroke-width="3"/><path d="m385.16 176 .69.11h.29l1.61.29h.21l1.38.29.34.08 1.53.37h.14l1.37.37.37.1 1.48.44 1.43.65.39.13 1.26.45.19.07 1.39.55.39.16 1.14.49.29.13 1.36.63.35.17.53.25v-.08q0-.59.08-1.16v-.27c0-.41.07-.81.11-1.21 0-.4.08-.8.13-1.19v-.28q.06-.47.13-.93v-.24q.08-.56.17-1.11v-.2q.08-.45.17-.9l.06-.29c.07-.34.14-.68.21-1 .08-.35.16-.7.24-1l.07-.27q.1-.42.22-.83l.06-.22q.14-.5.29-1l.06-.19.26-.82.08-.26q.32-1 .69-2l.09-.25.31-.81.08-.19.4-1 .08-.19.34-.81.06-.14c-1.88-1.22-3.77-2.38-5.61-3.48l-16.28-7.69-1.05 17.73.14 3.3c.18 1.1.23 2.25.28 3.25z"/><path d="m360.1 205.8 1.85 2.91.49-.18.53-.2 1.38-.49.45-.15 1.05-.35.51-.16 1.39-.42.34-.09 1.14-.31.49-.13 1.3-.31.3-.07 1.29-.27.49-.09 1.18-.21.31-.05 1.41-.23.49-.06 1.13-.14h.4l1.44-.13h.48.48l-.14-.23h.08l-.41-.83-.17-.36-.43-.92-.08-.17c-.16-.35-.31-.7-.46-1l-.14-.33-.32-.79-.12-.29q-.2-.51-.39-1l-.09-.24-.29-.81-.1-.3q-.16-.48-.31-1v-.06c-.11-.34-.21-.68-.31-1l-.08-.27-.23-.82-.06-.21q-.13-.51-.25-1v-.19q-.1-.43-.19-.85l-.05-.25q-.22-1-.39-2.07v-.24q-.07-.44-.14-.89v-.17q-.08-.53-.15-1.06v-.18c0-.3-.08-.57-.11-.87 0-.05 0-.07 0-.12-2.24-.12-4.46-.24-6.6-.28l-17.94 1.48 8 15.88z"/><path d="m415.9 226.26a7.84 7.84 0 0 0 1.1-.19v-.07.07s.43 0 .55 0h.2.25v-.21c-3-7-9.61-12.89-20.43-14.89h-.16c-2.22 0-4.8-.8-7.38-1a54.55 54.55 0 0 0 4.5 5.8h.18-.17c6.95 7.73 14.32 10.82 21.45 10.43"/><path d="m385.45 181.65c-1.82-.32-3.64-.58-5.48-.76.12 1.85.52 3.84.76 5.54a46.93 46.93 0 0 0 6 18c1.19 0 2.32.08 3.49.16h.26l1.14.09 1.46.11h.06l-.28-.46.28.46a47.43 47.43 0 0 1 14.26 3.74l-.06-.13-.15-.34-.15-.35-.15-.37-.14-.34-.17-.42-.12-.31-.27-.74-.08-.24-.19-.54-.11-.32-.15-.47-.11-.35-.14-.46-.11-.38-.13-.46-.11-.4-.12-.46-.1-.41-.11-.46-.1-.42-.1-.47-.09-.44-.09-.47-.09-.46-.08-.46q-.1-.59-.2-1.19v-.22c0-.2-.06-.4-.09-.6l-.05-.38c0-.2-.05-.41-.08-.61v-.39-.18s0-.2 0-.2 0-.16 0-.16 0 .12-.06.09-.09 0-.14 0-.43-.02-.56-.02l.33.18-.11-.05-.22-.13c-.08-.05-.13-.1-.21-.15l.21.15.23.14a1.13 1.13 0 0 1 .27.17l.1.06a.1.1 0 0 0 0 0l-.38-2.61h-.19c0-1.29 0-2.55 0-3.82a56.85 56.85 0 0 0 -17.84-6.2s.24 0 .24 0m.65 5.6.37.08zm.77.18h.24-.24l-.39-.06h-.25m.45 2.84q.2.85.44 1.69-.22-.99-.42-1.8z"/><path d="m355.17 247 3 1.57.47-.57.15-.18q.54-.65 1.08-1.27l.1-.12 1-1.1.2-.22c.37-.4.73-.79 1.11-1.17l1.06-1.06.24-.23q1.13-1.09 2.3-2.12l.25-.21 1.14-1 1.24-1 .23-.18 1.16-.87.11-.08 1.32-.93.17-.12.45-.31-.25-.14.17-.09-.77-.6-.12-.09q-1.08-.74-2.06-1.48l-.11-.08-.9-.7-.07-.05-.95-.77-.85-.72-.12-.11q-.86-.75-1.66-1.52l-.11-.11-.72-.71-.07-.07-.78-.8-.69-.75-.11-.12q-.73-.81-1.43-1.66l-.08-.1-.68-.84q-.72-.91-1.42-1.86c-2 1-4 2.08-5.82 3.11l-14.8 10.25 14.83 9.77z"/><path d="m383.16 229.62a51.52 51.52 0 0 1 7.84-2.62 43.1 43.1 0 0 1 6.43-1.41 41.22 41.22 0 0 1 -10.31-10.59v.17m0 0v-.17a1 1 0 0 1 0 .12l-.11.08-1.48-2.14c-.73-1.08-1.41-2.12-2.06-3.19a56.34 56.34 0 0 0 -18.47 3.5c-1.74.64-3.45 1.35-5.14 2.11 1.09 1.63 2.14 3.12 3.21 4.53a47.19 47.19 0 0 0 14.29 12.57l3.15-1.76c.88-.43 1.76-.91 2.63-1.28"/><path d="m380.3 267.44.17-.35h-.11l.11-.19h-.16l-.94-.06h-.38l-1-.09h-.19l-1.14-.13h-.34l-.85-.11h-.31l-1.07-.17-.28-.05-.81-.29-.36-.07-.85-.18-.27-.06-.89-.21-.38-.1-.65-.17-.37-.1-.9-.26-.39-.12-.59-.18-.43-.14-.63-.21-.56-.2-.62-.22-.44-.17-.54-.21-.42-.16-.85-.35-.4-.17-.58-.25-.23-.1c-1.22 1.88-2.38 3.77-3.48 5.61l-7.69 16.27 17.73 1.05 3.3-.14 3.36-.14.09-.57.04-.45q.13-.76.28-1.51l.07-.34q.13-.63.26-1.25l.09-.4c.11-.5.23-1 .36-1.5v-.16q.17-.68.36-1.35l.1-.37q.43-1.49.92-2.94l.12-.35q.23-.66.48-1.32v-.13q.27-.71.56-1.42l.14-.35q.25-.59.51-1.19l.11-.26q.31-.69.63-1.37z"/><path d="m363.16 251.12c-1.19 1.42-2.31 2.89-3.39 4.39 1.75.86 3.41 1.63 5 2.31a47.21 47.21 0 0 0 18.69 3.74c.66-1.09 1.35-2.16 2.06-3.21l.08-.12 1.4-2.06h.07-3.57-.91.91 2.89.77l.14-.19.38-.5.24-.31.36-.46.23-.29.54-.66.23-.28.34-.41.27-.31.32-.36.26-.3.39-.43.35-.38.37-.39.27-.28.31-.32.27-.27.34-.33.26-.25.51-.48.26-.24.31-.28.28-.25.31-.27.27-.23.52-.43.28-.23.29-.23.31-.24.25-.2.32-.24.2-.15.32-.24a44.67 44.67 0 0 1 -10.19-2.34q-2-.67-4-1.53l-.58.31.57-.31h-.06l-.41-.2c-.74-.32-1.49-.66-2.24-1l-1-.53c-.73-.37-1.45-.75-2.17-1.14a56.31 56.31 0 0 0 -14.22 12.12zm5.22 2.28.51-.56-.5.56.14.05-.14-.05z"/><path d="m414 234.83c-6-4-14-5.12-24-2s0 0 0 0a69.66 69.66 0 0 0 -6.89 2.8 69.42 69.42 0 0 0 6.89 2.79 1.26 1.26 0 0 0 .2.25s-.14.24.14.24c9.63 3 17.83 1.81 23.78-2.2.42-.28.75-.68 1.15-1-.39-.21-.89-.6-1.27-.88z"/><path d="m407.17 307.26q-.27-.72-.52-1.44l-.11-.33q-.2-.6-.4-1.21l-.13-.4q-.23-.74-.44-1.47l-.05-.19q-.18-.66-.35-1.32l-.1-.39c-.12-.5-.24-1-.36-1.49-.11-.49-.21-1-.31-1.48l-.08-.39q-.13-.67-.24-1.35v-.16q-.12-.75-.22-1.5l-.05-.38q-.08-.64-.16-1.29v-.26q-.08-.76-.14-1.53v-.33c0-.19 0-.37 0-.56l-.21.12v-.05l-.24.09-.18.09-.35.21.33-.2-.55.27-.13.06q-1.17.56-2.3 1l-.16.07-1 .41-.13.05-1.11.42h-.08l-1 .35-.19.07q-1.07.36-2.12.67l-.18.05-.94.26h-.12l-1.07.27h-.09l-1 .22h-.19q-1 .22-2.1.4h-.22l-.89.14h-.19l-1 .14h-.26l-.78.09h-.21c-.12 2.22-.17 4.45-.21 6.6l1.36 18.19 15.88-8 2.74-1.74 2.88-1.83-.2-.54z"/><path d="m380.44 284.7c-.27 1.6-.47 3.06-.64 4.56l-.07.66v.26l2.43-.18h.12.72l.95-.1h.34l.55-.08h.33m0 0c.76-.08 1.32-.18 1.94-.28a48.2 48.2 0 0 0 15.6-5.54c.17-.09.21-.17.37-.26h-.08l.13.39c0-1-.09-.68-.09-.82 0-1 0-2 .06-2.94 0-.14-.06-.28-.06-.42 0-.05.24-.1.24-.16l.29-2.47.11-.06a.41.41 0 0 1 0-.09.52.52 0 0 0 -.15.13l.16-.08v-.22c0-.27.07-.53.1-.8v-.23c0-.3.08-.6.13-.9v-.11q.08-.51.16-1v-.06q.08-.44.16-.88l.07-.33.12-.58.09-.4.11-.49.1-.44.1-.44.11-.46.1-.38.13-.48.09-.33.15-.52.07-.24.18-.58v-.1a40.42 40.42 0 0 1 1.69-4.42l-.6.27-.13.06-.61.25-.13.05-.67.26h-.08l-.78.29-.75.26-.28.09-.51.17-.34.11-.47.14-.38.11-.46.13-.39.11-.47.12-.4.1-.49.12-.39.09-.54.12-.36.08-.64.13-.28.06q-1.44.27-3 .48h-.11l-.93.12s0 .21 0 .21 0 .24 0 .24a.69.69 0 0 0 -.36.39c.09-.16.19-.37.29-.55-.1.17-.19.22-.29.38s-.12.16-.19.26c.06-.1.12 0 .19-.11a.66.66 0 0 1 .35-.37h-.06v-.17l-.19-.09-2.24.13c-.06 0-.12.05-.18.06s0 .07 0 .07h-1.22c.41 0 .81-.08 1.22-.08-1.3 0-2.56.11-3.82.14a56.17 56.17 0 0 0 -6.2 17.7"/><path d="m417.81 245.25v-.25s0 .13.07.08-.09.11-.13.1c-.53-.07-1.07-.06-1.6-.09-7.13-.39-14.59 2.73-21.54 10.47h.16-.18a54.35 54.35 0 0 0 -4.49 5.78 54.28 54.28 0 0 0 7.25-1l1.13-1.37c-.34.45-.68.78-1 1.23 10.83-2.28 17.38-7.89 20.33-14.95z"/><path d="m483.87 295.33c-.24 0-.35-.06-.53-.09h.21-.09-.1l-.51-.09-1.47-.27-.41-.08-1.16-.24-.47-.1-1.45-.35-.28-.07-1.22-.33-.44-.13-1.37-.41-.17-.05-1.33-.44-.43-.15-1.18-.43-.26-.09-1.36-.54-.43-.18-1.06-.46-.36-.16-1.32-.61-.44-.21-.48-.23v.13q0 .56-.07 1.11v.28q-.1 1.25-.24 2.42v.25q-.06.5-.13 1v.2q-.08.57-.18 1.13v.16c-.05.32-.11.63-.17.94l-.05.27q-.1.52-.21 1-.12.52-.24 1l-.07.29-.2.79-.07.26q-.13.49-.28 1l-.08.27-.23.72-.11.34-.43.82-.1.28-.29.8-.14.38-.24.62-.14.36-.35.87-.16.39-.25.58-.1.23c1.88 1.22 3.77 2.38 5.61 3.48l16.27 7.69 1.04-17.68-.14-3.3q-.07-1.76-.14-3.37z"/><path d="m509 265.61-1.87-2.95-.57.21-.41.15-1.46.52-.33.11-1.2.4-.41.13-1.46.44-.22.06-1.28.34-.41.11-1.46.35h-.08l-1.42.3-.43.08-1.27.23h-.24l-1.45.22-.46.06-1.15.14h-.39l-1.44.14h-.51-.35s-.09 0-.13 0l.13.27.33.68.22.45.32.95.14.32.43 1 .15.36.31.75.13.31q.2.51.39 1l.09.24.29.82.1.3q.17.49.32 1c.11.34.21.68.31 1l.07.26.23.84.05.2q.13.51.25 1v.17q.1.43.19.86l.05.25q.21 1 .39 2.05v.28q.07.41.13.82v.24c0 .33.1.67.14 1v.31a5.82 5.82 0 0 1 .07.73c0 .07 0 .14.05.21 2.24.12 4.46.17 6.6.21l18-1.48-7.95-15.88z"/><path d="m488.76 285c0-.07-.13-.13-.13-.2-.11-.89-.28-1.6-.42-2.36 0-.08-.06-.17-.07-.25a47.48 47.48 0 0 0 -5.68-15.12c-1.26 0-2.54-.05-3.84-.05s0-.13 0-.13h-2.57s0 .17-.07.17h.02v-.46l.06.11a1.1 1.1 0 0 1 .12.21l.16.26.17.28.59 1 .56 1 .16.29.41.75.13.24.47.9.14.29.32.65-.32-.65-.14-.29-.47-.9-.13-.24-.41-.75-.16-.29-.56-1c-.19-.34-.39-.66-.59-1l-.17-.25c-.05-.09-.1-.2-.16-.3l-.13-.21h-.05a1.21 1.21 0 0 1 .24.42 1.19 1.19 0 0 0 -.24-.42h-.24-.14l-.84-.11h-.18q-1.27-.17-2.47-.39h-.26l-.53-.1-.4-.08-.48-.1-.43-.09-.45-.1-.44-.11-.43-.11-.44-.11-.41-.11-.44-.12-.4-.11-.43-.13-.38-.12-.42-.14-.37-.12-.42-.15-.68-.24-.39-.14-.42-.16-.31-.12-.42-.17-.29-.12-.42-.18-.27-.12-.16-.07.06.14.15.34.15.35.16.38.14.34.17.43.12.3.27.74.09.25.18.53.11.33.15.46.11.36.14.46.11.38.13.46.11.39.12.46.1.4.11.48.09.41.11.5.09.41.11.54.08.39c0 .22.08.45.12.67v.27q.08.47.15 1v.33c0 .22.06.44.09.67v.39l.08.63v.12a1.48 1.48 0 0 1 .67.42c-.22-.14-.4-.27-.67-.41.28.14.41.28.63.41.07 0 .1.09.17.13l-.21-.13-.64-.39a.15.15 0 0 0 0 0l.36 2.6h.18c0 1.3-.16 2.26-.13 4.26v-.22c.9.5 2 .84 2.91 1.27a56.27 56.27 0 0 0 15.49 4.43s-.19.11-.19.1l-.09.15a1.22 1.22 0 0 1 .31-.05h.38c.6.09 1.2.13 1.81.21l-.88-.11.94.13 2.21.27.64.07c0-.31 0-.61-.06-.91s-.06-.78-.09-1.17c-.1-1.15 0-2.27-.14-3.35a.83.83 0 0 1 .16-.1"/></g><path d="m145.35 145.58v-.12"/><path d="m509.6 247.2.58.75.23.31.41.54.18.2c2-1 4-2.08 5.82-3.11l14.8-10.25-14.83-9.77-2.89-1.51-3-1.58-.52.64-.06.08q-.56.68-1.13 1.33-.53.61-1.08 1.2l-.15.16q-1.11 1.21-2.26 2.33l-.2.19q-1.14 1.11-2.33 2.15l-.22.19-1.19 1-1.25 1-.21.16-1.19.89-.08.06-1.33.94-.16.11-.55.38h.07-.05.06l.89.59.28.19.87.61.12.09.92.67.3.23.64.49.28.22.81.66.27.22.57.48.31.27.59.53.29.26.62.58.3.29.46.46.28.28.65.67.27.29.43.47.29.32.48.54.31.36.48.57.22.47.4.5z" transform="translate(-337.45 -138.62)"/><path d="m485.53 261.37-.09-.12-.16-.22z" transform="translate(-337.45 -138.62)"/><path d="m504 258c1.74-.64 3.35-1.34 5-2.1v-.18c-1-1.62-2-2.71-3-4.71a30.87 30.87 0 0 1 -5.28 2.24v.1s0 .07 0 .08l-.92.31.91-.3-.6-.72.6.72c1.73-.58 3.49-1.26 5.3-2.05a47.22 47.22 0 0 0 -14.31-12.58c-1.1.61-2.23 1.19-3.4 1.76l-2.37 1.15-.12-.06s0 .17-.06.18 0 .19.05.19a1.16 1.16 0 0 1 .57.15c-.19-.1-.38-.29-.57-.39a47.92 47.92 0 0 1 -14.15 3.86l.56.4.18.13.41.31.2.15.44.36.14.11.59.49.11.1.48.42.17.15.46.41.14.13.6.57.57.56.15.15.46.47.15.15q.6.63 1.2 1.3l.12.14.48.55.14.17.54.64.05.06.62.76.06.08.54.69.12.15.54.72v.05h.7c-.22 0-.64 0-.64 0v-.02l1.45 2.14.35.52-.34-.58.08.12-.09-.14c.19.28.38.58.57.88.42.64.83 1.28 1.23 1.92l.17.23.09.12s0-.16 0-.16 0-.2.06-.2c.31 0 .62.23.93.21.08 0 .16-.09.23-.09v.03s0 .22 0 .22 0 .11 0 .11c.41 0 .81-.17 1.21-.2v-.14c.35 0 .7.14 1 .11.07 0 .14.08.21.08s.07 0 .11 0l.82-.06h.19.42l.69-.08.46-.06.65-.09.44-.06.77-.13.31-.05 1-.19.4-.08.64-.13.45-.1.59-.13.45-.11.6-.15.41-.11.94-.26.41-.12.57-.17.48-.15.49-.16.49-.16.47-.16.49-.17.46-.17.72-.13-.24-.34zm-16.2 3.38h-.95s0 0 0 0h1.21c-.06-.05-.14-.01-.23-.01zm-.16-18.62 1 .58zm1.43 18.55h-.17.29.18zm5.14-6.17q1.31-.26 2.62-.59-1.28.33-2.59.58zm4.57-3.83q.62.67 1.21 1.36-.56-.67-1.17-1.37z" transform="translate(-337.45 -138.62)"/><path d="m479 261.33a54.4 54.4 0 0 0 -4.48-5.77h-.49.49c-6.47-7.21-13.38-10.39-20.06-10.48q-.67 0-1.33 0h-.13c-.6 0-1.2.09-1.8.17a22 22 0 0 0 1.39 2.81c3.39 5.77 9.6 10.2 19.08 12.22l-.52-.71.63.73a54.32 54.32 0 0 0 7.22 1.03z" transform="translate(-337.45 -138.62)"/><path d="m488.75 203.9-.19.39h.11l-.11.19 1.1.07h.29q1.24.1 2.41.24h.26l1 .13h.21l1.13.18h.17l.94.17.26.05 1.05.22 1 .25.26.07.83.22.22.06 1 .29.31.17.79.25.28.09.93.31 1 .35.29.11.71.29.25.1.94.38.27.11.71.3.18.08c1.22-1.88 2.38-3.77 3.48-5.61l7.69-16.27-17.7-1.09-3.1.13-3.56.15-.1.57-.08.46q-.13.76-.27 1.51l-.07.36q-.12.61-.26 1.22l-.1.43q-.17.75-.35 1.48l-.06.22q-.17.65-.35 1.29l-.11.4c-.14.49-.28 1-.44 1.46-.15.48-.31 1-.48 1.45l-.13.37q-.23.66-.47 1.31l-.05.14q-.27.71-.56 1.42l-.14.34q-.25.61-.52 1.22l-.1.22q-.31.71-.65 1.41z" transform="translate(-337.45 -138.62)"/><path d="m488 215.34h-.25-1-.22-.9-2.63-.84-.23l-.08.11-.48.64-.16.2-.48.62-.12.15-.6.74-.09.11-.5.59-.17.2-.44.5-.17.19-.64.61-.56.6-.18.19-.42.42-.19.19-.47.47-.11.11-.58.54-.18.17-.41.37-.21.19-.4.35-.18.16-.56.47-.18.14-.4.32-.24.19-.35.27-.24.18-.41.3-.15.11a45.42 45.42 0 0 1 11.14 2.67h.05l1.23.47.4.16.7.29.62.26c.64-.34 1.27-.5 1.89-.86-.62.36-1.25.24-1.89 1.24s0-.18.06-.17l.06-.13 2 .93.35.14h.07c1.14.55 2.24 1.11 3.33 1.71a56.3 56.3 0 0 0 14.24-12.26c1.19-1.42 2.31-2.89 3.39-4.39-1.75-.86-3.41-1.64-5-2.32a47.23 47.23 0 0 0 -18.69-3.74c-.66 1.08-1.34 2.15-2 3.2l-.16.23-1.37 2.04a.76.76 0 0 0 .17 0h3.38.9.22 1 .33l.81.05h.27-.27zm12.54 2.58.15.06-.4.45.4-.45z" transform="translate(-337.45 -138.62)"/><path d="m485.86 235.65a54.14 54.14 0 0 0 -6.78-2.75l-.89.3.78-.34c-9.59-3.1-17.4-2.18-23.31 1.48a22.12 22.12 0 0 0 -1.92 1.33h.05.07v.06q.56.43 1.14.82c6 4 14 5.13 24 1.9l-.9-.38 1 .34a54.36 54.36 0 0 0 6.76-2.76z" transform="translate(-337.45 -138.62)"/><path d="m461.83 164q.3.8.57 1.59v.11q.25.73.48 1.46l.08.24q.49 1.56.88 3.12l.07.26q.39 1.55.7 3.11l.05.26q.3 1.56.51 3.13v.25c.06.49.13 1 .18 1.47v.12c.06.53.12 1.07.16 1.61v.23s.09.43.1.64l1-.49.39-.11 1.08-.5 1.1-.48.25-.11.88-.36.21-.09 1.05-.41.17-.06.88-.31c.09 0 .17-.18.26-.21a4 4 0 0 1 1-.46 3.76 3.76 0 0 0 1-.19h.25c.28-.08.56-.13.84-.2h.2l1-.25h.18l.86-.19.25-.05q1-.22 2.06-.39h.26l.86-.14h.2l1-.15h.22l.85-.1h.16c.12-2.23.17-4.46.21-6.6l-1.28-18.16-15.88 8-2.67 1.7-3 1.88.26.7z" transform="translate(-337.45 -138.62)"/><path d="m488.59 186.81c.27-1.79.56-3.86.73-5.67-1.94.13-3.76.29-5.5.51l.31.34-.32-.34-.4.06h-.12l-.86.12h-.06-.1l-.43.07h-.06l-1.09.19-.62.12-1.15.25-.3.07-.83.2-.36.1-.8.22-.34.1-.93.29-.2.06c-.8.26-1.6.55-2.42.87-.84.33-1.69.69-2.57 1.08l-.66.31-.56.27h-.11-.05-.15l-.3.15-.11.1-.32.13h-.08l-.52.25c-.14.08-.18.15-.32.23a2.25 2.25 0 0 0 -.94.56c0 .17-.13.35-.14.52s-.09.65-.1 1v.19c0 .3 0 .61-.05.91s0 .38 0 .57-.08.23-.08.35.05.24.05.34v.7l-.16 1.78c0-.18 0-.35 0-.39v-.11c.07-.65.11-1.3.16-2h-.13.06c0 .67-.08 1.33-.15 2v.71.15l-.07.57-.05.43c0 .24-.07.47-.1.71v.28q-.07.5-.16 1c-.05.31-.11.62-.17.93v.23l-.14.71-.06.28-.14.64-.07.29-.15.61-.07.29-.15.59-.07.27-.16.59-.07.25-.18.61-.07.22-.21.66v.13q-.4 1.2-.85 2.31l-.07.16-.23.55-.09.21-.21.48v.09l.14-.06.35-.16.34-.15.38-.16.33-.14.43-.17.3-.12.74-.27.24-.08.53-.18.33-.11.46-.15.36-.11.45-.14.38-.11.46-.13.39-.1.47-.12.39-.1.49-.12.39-.09.53-.12.37-.08.61-.12.31-.06.9-.16 1-.16h.11l.9-.13h.21l.83-.1h.07v-.05h.63l2-.08s0 .17 0 .17v.4l.17-.14.21-.09a0 0 0 0 1 0 0h-.42a.82.82 0 0 0 .42-.13h-.69c.33 0 .79-.25 1.12-.27s.54-.29.74-.29h-.34v.2a5.89 5.89 0 0 1 .82-.12c.19 0 .16-.08.35-.08.13 0 .14.2.27.2a1.32 1.32 0 0 1 .56.19v-.47.19l.2.1.12.06h.28.36s-.28-.21-.27-.22l-.26-.19a54.85 54.85 0 0 0 6.13-17.4s.03.27.03.27zm-23 5c0-.06 0-.12 0-.18v.35-.18zm-.13 2.45v-.08a.12.12 0 0 1 0 .05zm3-1.78h.08-.07zm3.13-1.61-.25.12-.72.36-.23.12.23-.12.72-.36m4.5 13.7a1.52 1.52 0 0 0 .37-.6 1.53 1.53 0 0 1 -.37.59z" transform="translate(-337.45 -138.62)"/><path d="m477.88 204.66h.67z" transform="translate(-337.45 -138.62)"/><path d="m477.18 204.71h.69l-1.3.06h.6z" transform="translate(-337.45 -138.62)"/><path d="m478.57 204.68a.1.1 0 0 0 0 0z" transform="translate(-337.45 -138.62)"/><path d="m113.78 87.25h-.01v.02h.01-.01z"/><path d="m451 225.89h.12.06c.55.08 1.4.27 2 .31h-.23c7.14.39 14.61-2.6 21.56-10.35v.15-.2c.11-.12.22-.27.32-.4a44.6 44.6 0 0 0 3.95-5.12l.07-.11.1-.16a51.13 51.13 0 0 0 -6.1.78c-.38.08-.76.16-1.13.25l-.56.59c.15-.2.18-.39.33-.59-10.88 2.3-17.49 7.79-20.49 14.85z" transform="translate(-337.45 -138.62)"/><path d="m422.38 160 1.2 1 .25.22.94.84.33.3 1.1 1 .19.19.9.9.32.33 1 1 .1.11.95 1.06.29.33.84 1 .14.17q.47.58.93 1.17l.25.32.76 1 .18.24q.44.61.87 1.23l.22.32.31.45v-.07.05l.63-.94.16-.23q.71-1 1.42-2l.15-.2.6-.78.13-.16.72-.89.1-.12.64-.75.16-.18q.73-.84 1.48-1.62l.15-.16.66-.66.11-.11.78-.75.09-.09.7-.65.15-.14q.8-.72 1.63-1.4l.14-.12.77-.62.08-.06.89-.69h.06l.84-.63h.06c-1-2-2.08-3.95-3.11-5.82l-10.25-14.8-9.78 14.83-1.49 2.84-1.6 3.07.5.41z" transform="translate(-337.45 -138.62)"/><path d="m414.1 188.32.11.08.48.36.31.24.5.39.29.23.75.61.23.19.51.43.3.26.41.36.31.28.38.34.32.31.36.34.3.29.34.34.29.29.33.34.27.28.33.35.25.27.34.38.22.24.41.47.13.15.51.61.15.18.35.43.18.23.24.41.18.24.27.37.07.1v-.19-.26c0-.16 0-.32.05-.48v-.27l.06-.49v-.26q.13-.84.29-1.71l.07-.35.09-.42.09-.4.09-.41.1-.43.1-.4.11-.44.11-.4.13-.46.11-.39.14-.48.12-.39.16-.51.12-.37.19-.57.11-.32.27-.76.05-.14.35-.92.09-.23.28-.7.13-.32c.09-.21.14-.41.23-.62 0 0 .06-.2.08-.24l1.14-2.35c.56-1.17 1.15-2.29 1.75-3.4a56.3 56.3 0 0 0 -12.25-14.24c-1.42-1.19-2.89-2.31-4.39-3.39-.86 1.75-1.63 3.41-2.31 5a47.22 47.22 0 0 0 -3.74 18.69c1.08.65 2.14 1.33 3.22 2.06zm14.1-3.92h.12z" transform="translate(-337.45 -138.62)"/><path d="m76.6 49.67.04.03-.05-.03z"/><path d="m408.81 191.24a59.32 59.32 0 0 0 .94 7.22h.07c2.31 11 8 17.54 15.05 20.49h.13s0 0 0 .06-.05-.09 0-.13c0-.27 0-.54.06-.81v-2.54c0-.17 0-.33 0-.5a22 22 0 0 0 -.73-4.65c-1.32-5-4.45-9.93-9.74-14.67 0 .29.05.59.08.88l-.1-.9a54.43 54.43 0 0 0 -5.76-4.45zm6.47 10.21-.14-1.19c.02.38.07.74.14 1.19z" transform="translate(-337.45 -138.62)"/><path d="m460 184.64a50.1 50.1 0 0 0 -.29-6.41c-.14-1.08-.26-2.14-.46-3.18a58.45 58.45 0 0 0 -2.48-8.83l-.27.2c.11-.08.22-.25.33-.32l.09-.09h.08v.18a53.46 53.46 0 0 1 -2.19-5.13c-1.62 1.09-3.16 2.13-4.57 3.21v.15l-.07-.15a47.25 47.25 0 0 0 -12.59 14.31c.61 1.1 1.18 2.22 1.74 3.38l.06.14 1.08 2.23v.06.06.06l.35.83.05.12q.6 1.45 1.08 2.84v.11l.27.78.07.23.21.65.08.28.18.59.09.3.15.56.08.31.14.54.08.32.12.53.07.31.12.54.06.28.12.63v.18q.07.4.14.79v.26l.28.51v.33l.06.44v.34.42.13l.1-.14.19-.26.26-.35.21-.28.25-.33.25-.31.24-.3.45-.55.23-.27.35-.4.24-.26.32-.36.26-.28.32-.34.28-.29.33-.33.29-.29.33-.33.31-.3.34-.32.33-.3.35-.31.34-.31.35-.31.36-.32.34-.29 1-.79.16-.13.46-.36.32-.25.46-.35.41-.32s.2.11.2-.16v-.17h-.25s0 0 0 0 0 .12 0 .12.07-.17.07-.29v.31l2.15-1.45h.05-.07c.45-.31.79-.61 1.26-.91s1.9-.78 1.9-1.12zm-7.61-14.64.09.29zm2.5 17.41a.05.05 0 0 1 0 .02z" transform="translate(-337.45 -138.62)"/><path d="m437.16 191.16-.33.79a5 5 0 0 1 .33-.79 58 58 0 0 0 -2.69-6.82 54.26 54.26 0 0 0 -2.75 6.78v.06c-2.46 7.53-2.44 14-.56 19.26a21.77 21.77 0 0 0 1.68 3.63l.16.22.56.94c.3.44.6.87.93 1.29 4.74-6.17 6.18-14.64 2.67-25.36z" transform="translate(-337.45 -138.62)"/><path d="m444.11 219 .14-.06c5.67-2.32 8.09-9 9.25-15.84-1.17 6.81-3.58 13.55-9.24 15.87a1.13 1.13 0 0 0 .36-.18l.32-.15.47-.23.3-.15.33-.17.26-.14.41-.23.15-.09.19-.11.59-.37.36-.15.33-.23.38-.27.52-.39.63-.51.2-.17.11-.1.41-.36.26-.25.33-.31.25-.25.51-.53.17-.19.39-.44.18-.22.52-.64a31.71 31.71 0 0 0 5.57-12c.13-.52.25-1 .35-1.59l-.1.07.13-.09a54.42 54.42 0 0 0 1-7.26 54.29 54.29 0 0 0 -5.77 4.49v.22-.22c-8.37 7.46-11.31 15.6-10.26 23.24z" transform="translate(-337.45 -138.62)"/><path d="m446.61 311.33-1.13-1-.33-.29-.86-.77-.36-.33-1.08-1-.2-.2-.9-.9-.31-.32q-.52-.54-1-1.09c-.33-.36-.66-.73-1-1.11l-.26-.3-.89-1.05-.1-.12q-.48-.59-1-1.2l-.22-.29-.8-1.07-.14-.19q-.46-.63-.9-1.27l-.18-.26-.33-.49v.07-.05l-.63.95-.15.22q-.71 1-1.42 2l-.15.2-.6.78-.13.16-.72.89-.11.13-.62.73-.18.2-.71.8-.73.78-.2.2-.59.6-.17.17-.73.71-.18.17-.58.54-.24.22-.67.59-.15.13-.7.59-.29.24-.54.44-.28.22-.76.59-.32.24-.51.39-.2.15c1 2 2.08 4 3.11 5.82l10.25 14.8 9.78-14.83 1.47-2.83 1.61-3.09-.41-.33z" transform="translate(-337.45 -138.62)"/><path d="m414.66 275.67c7.57-6.8 10.68-14.09 10.44-21.08a3 3 0 0 0 0-.31s0-.28 0-.28 0 .48 0 .47 0-.47 0-.47 0-1.17 0-1.84v.09a.68.68 0 0 1 -.16.1c-7.08 3-12.59 9.57-14.9 20.52h.06l-.07.06a54.34 54.34 0 0 0 -1 7.25 54.29 54.29 0 0 0 5.77-4.49" transform="translate(-337.45 -138.62)"/><path d="m455 283.16v.06a.16.16 0 0 1 0 0v.54.31s0 .43 0 .64v.29.22c0-.37 0-.74 0-1.11 0-.11 0-.22 0-.33s0-.12 0-.17 0-.34 0-.52v.69c0-.24 0-.48 0-.73l-.18-.13-.19-.14.19.13a.35.35 0 0 0 .16.1.36.36 0 0 1 -.16-.1l-.19-.14.19.15-.19-.14-.61-.46-.12-.09q-1-.76-1.89-1.53l-.2-.17-.42-.36-.3-.26-.37-.33-.32-.29-.4-.29-.33-.31-.31-.3-.36-.39-.29-.28-.34-.35-.26-.27-.35-.37-.23-.25-.36-.4-.19-.22-.44-.51-.1-.11-.51-.62-.15-.19-.34-.42-.2-.26-.27-.35-.22-.29-.23-.31-.09-.12v.13.44.33c0 .15 0 .29-.06.44v.33l-.07.46v.32c0 .22-.08.45-.12.68l-.08.42-.09.48-.08.39-.09.42-.09.41-.1.42-.1.42-.11.42-.11.43-.12.42-.12.43-.13.43-.13.44-.14.44-.14.44-.15.45-.15.45-.17.47-.28.75-.22.57-.19.48-.18.45-.21.5-.18.44-.06.15c.1.18.2.41.29.59a2.67 2.67 0 0 0 -.09-.5h.04v-.09s-.22 0-.23.06l-.07.07-1.2 2.37c-.57 1.17-1.17 2.29-1.78 3.4a56.21 56.21 0 0 0 12.28 14.17c1.42 1.19 2.88 2.31 4.39 3.39.86-1.75 1.63-3.41 2.31-5a47.24 47.24 0 0 0 3.74-18.69c-1.09-.66-2.17-1.35-3.23-2.07zm-2.77 18.66-.51-.46.51.46v-.05zm2.77-15.44v.35.83.29 1 .34s0 .47 0 .7 0 .24 0 .35c0-.12 0-.24 0-.35s0-.46 0-.7 0-.22 0-.34q0-.49 0-1c0-.1 0-.2 0-.29q0-.41 0-.83c0-.12 0-.23 0-.35 0-.37 0-.74 0-1.12z" transform="translate(-337.45 -138.62)"/><path d="m436.37 257.68a22 22 0 0 0 -1.83-2.77 22 22 0 0 0 -1.54 2.29c-3.47 5.89-4.28 13.61-1.19 23l.2-.44-.2.46a54.28 54.28 0 0 0 2.76 6.77 54.36 54.36 0 0 0 2.75-6.78l-.09-.21.09.2c2.99-9.13 2.29-16.7-.95-22.52zm-2 16.39.12-.32z" transform="translate(-337.45 -138.62)"/><path d="m460.22 280.14a54.24 54.24 0 0 0 -1-7.25h-.05c-2.31-11-7.84-17.55-14.93-20.5v.07l-.14-.06v.05q-.13 1-.17 2c-.27 7 2.85 14.36 10.47 21.2v-.43l.06.44a54.26 54.26 0 0 0 5.76 4.48z" transform="translate(-337.45 -138.62)"/><path d="m418.84 307.12a47.22 47.22 0 0 0 12.58-14.32c-.61-1.12-1.2-2.26-1.75-3.39v-.06l-1.16-2.35a.76.76 0 0 1 .21 0h.28v-.08c-1 .17-.42.34-.52.51.09-.17.07-.34.16-.51s-.09-.07-.1-.1c-.1-.22-.22-.44-.31-.66s-.09-.19-.13-.28c-.11-.26-.22-.52-.32-.78l-.06-.15c-.12-.32-.25-.63-.36-.94l-.33-.9-.08-.25-.22-.65-.1-.31-.18-.58-.1-.33-.16-.54-.1-.34-.15-.53-.09-.33-.13-.53-.08-.32-.13-.54-.07-.3-.14-.56-.05-.24q-.08-.37-.14-.74v-.07c0-.27-.1-.54-.14-.81v-.14q-.05-.32-.1-.64v-.24l-.07-.53v-.27l-.05-.49v-.13l-.09.12-.23.32-.21.29-.28.37-.19.24-.37.47-.12.15-.52.63-.53.61-.15.16-.42.46-.19.2-.39.42-.21.22-.39.4-.23.23-.4.4-.24.23-.59.38-.25.23-.45.41-.24.21-.52.46-.2.17-.73.62-.78.64-.12.1-.67.53-.23.17c-.2.15-.48.3-.68.45h-.16l-2.08 1.53s0 .05 0 .08c-1 .71-2.1 1.4-3.18 2.06a56.2 56.2 0 0 0 3.4 18.17h-.11a.66.66 0 0 0 .06 0c.14.3.3.88.43 1.17.39.91.75 1.81 1.13 2.71.15.36.31.55.48.91a.55.55 0 0 0 0 .22h-.1v.33h.29c1.62-1.08 3.12-2.12 4.52-3.19" transform="translate(-337.45 -138.62)"/></g></svg>