<svg enable-background="new 0 0 465.951 465.951" height="512" viewBox="0 0 465.951 465.951" width="512" xmlns="http://www.w3.org/2000/svg"><path d="m441.962 284.364-59.389-59.383c-15.984-15.985-35.396-23.982-58.238-23.982-23.223 0-43.013 8.375-59.385 25.125l-25.125-25.125c16.751-16.368 25.125-36.256 25.125-59.671 0-22.841-7.898-42.157-23.698-57.958l-58.815-59.097c-15.798-16.178-35.212-24.27-58.242-24.27-22.841 0-42.16 7.902-57.958 23.7l-41.97 41.683c-16.179 15.802-24.267 35.118-24.267 57.957 0 22.841 7.996 42.258 23.982 58.245l59.385 59.383c15.99 15.988 35.404 23.982 58.245 23.982 23.219 0 43.015-8.374 59.383-25.126l25.125 25.126c-16.75 16.371-25.125 36.258-25.125 59.672 0 22.843 7.898 42.154 23.697 57.958l58.82 59.094c15.801 16.177 35.208 24.27 58.238 24.27 22.844 0 42.154-7.897 57.958-23.698l41.973-41.682c16.177-15.804 24.271-35.118 24.271-57.958-.005-22.838-7.999-42.25-23.99-58.245zm-240.963-122.186c-.571-.571-2.334-2.378-5.28-5.424-2.948-3.046-4.995-5.092-6.136-6.14-1.143-1.047-2.952-2.474-5.426-4.286-2.478-1.809-4.902-3.044-7.28-3.711-2.38-.666-4.998-.998-7.854-.998-7.611 0-14.084 2.666-19.414 7.993s-7.992 11.799-7.992 19.414c0 2.853.332 5.471.998 7.851.666 2.382 1.903 4.808 3.711 7.281 1.809 2.474 3.237 4.283 4.283 5.426 1.044 1.141 3.09 3.188 6.136 6.139 3.046 2.95 4.853 4.709 5.424 5.281-5.711 5.898-12.563 8.848-20.555 8.848-7.804 0-14.277-2.568-19.414-7.705l-59.39-59.386c-5.327-5.33-7.992-11.802-7.992-19.417 0-7.421 2.662-13.796 7.992-19.126l41.971-41.687c5.523-5.14 11.991-7.705 19.417-7.705 7.611 0 14.083 2.663 19.414 7.993l58.813 59.097c5.33 5.33 7.992 11.801 7.992 19.414.001 7.991-3.139 14.94-9.418 20.848zm202.148 199.554-41.973 41.686c-5.332 4.945-11.8 7.423-19.418 7.423-7.809 0-14.27-2.566-19.41-7.707l-58.813-59.101c-5.331-5.332-7.99-11.8-7.99-19.41 0-7.994 3.138-14.941 9.421-20.841.575.567 2.334 2.381 5.284 5.42 2.95 3.046 4.996 5.093 6.14 6.14 1.143 1.051 2.949 2.478 5.42 4.288 2.478 1.811 4.9 3.049 7.282 3.713 2.382.667 4.997.999 7.851.999 7.618 0 14.086-2.665 19.418-7.994 5.324-5.328 7.994-11.8 7.994-19.41 0-2.854-.339-5.472-1-7.851-.67-2.382-1.902-4.809-3.72-7.282-1.811-2.471-3.23-4.284-4.281-5.428-1.047-1.136-3.094-3.183-6.139-6.14-3.046-2.949-4.853-4.709-5.428-5.276 5.715-6.092 12.566-9.138 20.554-9.138 7.617 0 14.085 2.663 19.41 7.994l59.388 59.382c5.332 5.332 7.995 11.807 7.995 19.417 0 7.416-2.663 13.799-7.985 19.116z" fill="#555"/></svg>