<?xml version="1.0" encoding="utf-8"?>
<!-- Generator: Adobe Illustrator 21.1.0, SVG Export Plug-In . SVG Version: 6.00 Build 0)  -->
<svg version="1.1" xmlns="http://www.w3.org/2000/svg" xmlns:xlink="http://www.w3.org/1999/xlink" x="0px" y="-50px"
	 viewBox="-20 0 1200 200" style="enable-background:new 0 0 1200 200;" xml:space="preserve">
<style type="text/css">
	.st0{display:none;}
	.st1{display:inline;}
	.st2{fill:#0098FF;}
	.st3{font-family:'Roboto-Bold';}
	.st4{font-size:257.5331px;}
	.st5{letter-spacing:-20;}
	.st6{fill:#B3B3B3;}
	.st7{fill:#333333;}
	.st8{font-family:'Roboto-Black';}
	.st9{font-size:252.5187px;}
	.st10{letter-spacing:-15;}
	.st11{fill:#000000;}
</style>
<g id="Layer_3_copy_5">
	<g>
		<g>
			<path class="st2" d="M80.6,2.5h43.2v123.2c0,11.4-2.7,21.6-8,30.6c-5.3,9-12.7,15.9-22.2,20.8c-9.5,4.9-20.1,7.4-31.8,7.4
				c-19.6,0-34.8-4.9-45.6-14.8C5.4,159.8,0,145.8,0,127.7h43.4c0,8.2,1.4,14.2,4.3,17.9s7.6,5.5,14.2,5.5c6,0,10.6-2.2,13.9-6.7
				c3.2-4.5,4.9-10.7,4.9-18.8V2.5z"/>
			<path class="st2" d="M228.5,134.3c0-6.3-2.2-11.3-6.7-14.8c-4.5-3.5-12.4-7.2-23.6-11c-11.3-3.8-20.5-7.4-27.6-11
				c-23.3-11.4-34.9-27.1-34.9-47.1c0-9.9,2.9-18.7,8.7-26.3c5.8-7.6,14-13.5,24.6-17.8C179.5,2.1,191.5,0,204.7,0
				c12.9,0,24.5,2.3,34.7,6.9c10.2,4.6,18.2,11.2,23.9,19.7c5.7,8.5,8.5,18.2,8.5,29.2h-43.2c0-7.3-2.2-13-6.7-17
				c-4.5-4-10.5-6-18.2-6c-7.7,0-13.8,1.7-18.3,5.1c-4.5,3.4-6.7,7.7-6.7,13c0,4.6,2.5,8.8,7.4,12.5c4.9,3.7,13.6,7.6,26,11.6
				c12.4,4,22.6,8.3,30.6,12.9c19.4,11.2,29.1,26.6,29.1,46.2c0,15.7-5.9,28-17.8,37c-11.8,9-28.1,13.4-48.7,13.4
				c-14.5,0-27.7-2.6-39.5-7.8c-11.8-5.2-20.7-12.4-26.6-21.5c-6-9.1-8.9-19.5-8.9-31.4h43.4c0,9.6,2.5,16.7,7.5,21.3
				c5,4.6,13,6.8,24.2,6.8c7.2,0,12.8-1.5,17-4.6C226.4,144.2,228.5,139.9,228.5,134.3z"/>
		</g>
		<g>
			<path class="st11" d="M435.6,182h-43v-75h-63.7v75h-43.3V2.5h43.3v71.3h63.7V2.5h43V182z"/>
			<path class="st11" d="M515.5,184.5c-20.5,0-37-6.1-49.7-18.3c-12.7-12.2-19-28.1-19-47.7V115c0-13.6,2.5-25.7,7.6-36.1
				c5.1-10.4,12.4-18.5,22.1-24.2c9.7-5.7,21.2-8.6,34.5-8.6c18.7,0,33.5,5.8,44.4,17.4c10.9,11.6,16.3,27.8,16.3,48.6v16.2h-82.6
				c1.5,7.5,4.7,13.4,9.7,17.6c5,4.3,11.5,6.4,19.5,6.4c13.2,0,23.4-4.6,30.8-13.8l19,22.4c-5.2,7.2-12.5,12.8-22,17.1
				S526.4,184.5,515.5,184.5z M510.8,78.2c-12.2,0-19.4,8.1-21.7,24.2H531v-3.2c0.2-6.7-1.5-11.8-5.1-15.5
				C522.5,80,517.4,78.2,510.8,78.2z"/>
			<path class="st11" d="M664.1,86.2l-13.7-1c-13.1,0-21.5,4.1-25.2,12.3V182h-41.6V48.6h39l1.4,17.1c7-13.1,16.7-19.6,29.2-19.6
				c4.4,0,8.3,0.5,11.6,1.5L664.1,86.2z"/>
			<path class="st11" d="M666.3,114.1c0-13.3,2.6-25.2,7.8-35.6c5.2-10.4,12.6-18.4,22.3-24c9.7-5.6,21.1-8.4,34.2-8.4
				c20,0,35.7,6.2,47.2,18.6C789.2,77,795,93.9,795,115.2v1.5c0,20.8-5.8,37.3-17.3,49.5c-11.5,12.2-27.2,18.3-46.9,18.3
				c-19,0-34.2-5.7-45.7-17.1c-11.5-11.4-17.7-26.8-18.6-46.3L666.3,114.1z M707.8,116.6c0,12.3,1.9,21.4,5.8,27.1
				c3.9,5.8,9.6,8.6,17.1,8.6c14.8,0,22.4-11.4,22.7-34.2v-4.2c0-23.9-7.6-35.9-22.9-35.9c-13.9,0-21.4,10.3-22.6,30.9L707.8,116.6z
				"/>
			<path class="st11" d="M872.8,184.5c-20.5,0-37-6.1-49.7-18.3c-12.7-12.2-19-28.1-19-47.7V115c0-13.6,2.5-25.7,7.6-36.1
				c5.1-10.4,12.4-18.5,22.1-24.2c9.7-5.7,21.2-8.6,34.5-8.6c18.7,0,33.5,5.8,44.4,17.4c10.9,11.6,16.3,27.8,16.3,48.6v16.2h-82.6
				c1.5,7.5,4.7,13.4,9.7,17.6c5,4.3,11.5,6.4,19.5,6.4c13.2,0,23.4-4.6,30.8-13.8l19,22.4c-5.2,7.2-12.5,12.8-22,17.1
				S883.7,184.5,872.8,184.5z M868.1,78.2c-12.2,0-19.4,8.1-21.7,24.2h41.9v-3.2c0.2-6.7-1.5-11.8-5.1-15.5
				C879.7,80,874.7,78.2,868.1,78.2z"/>
			<path class="st11" d="M1010.5,144.5c0-3.5-1.8-6.4-5.5-8.5c-3.7-2.1-10.7-4.4-21.1-6.7c-10.4-2.3-18.9-5.3-25.6-9.1
				c-6.7-3.7-11.9-8.3-15.4-13.6c-3.5-5.3-5.3-11.5-5.3-18.4c0-12.2,5.1-22.3,15.2-30.3c10.1-7.9,23.3-11.9,39.7-11.9
				c17.6,0,31.7,4,42.4,12c10.7,8,16,18.5,16,31.4h-41.7c0-10.7-5.6-16-16.9-16c-4.4,0-8,1.2-11,3.6c-3,2.4-4.4,5.4-4.4,9.1
				c0,3.7,1.8,6.7,5.4,9c3.6,2.3,9.4,4.2,17.3,5.7c7.9,1.5,14.9,3.2,20.9,5.3c20.1,6.9,30.1,19.3,30.1,37.1
				c0,12.2-5.4,22.1-16.2,29.7c-10.8,7.6-24.8,11.5-42,11.5c-11.4,0-21.6-2.1-30.6-6.2c-9-4.1-15.9-9.7-21-16.8
				c-5-7.1-7.5-14.5-7.5-22.3h38.8c0.2,6.2,2.2,10.7,6.2,13.5c3.9,2.8,9,4.3,15.2,4.3c5.7,0,9.9-1.1,12.8-3.5
				C1009.1,151.2,1010.5,148.2,1010.5,144.5z"/>
		</g>
	</g>
</g>
</svg>
