<svg viewBox="-20 0 1200 200" xmlns="http://www.w3.org/2000/svg"><path d="M80.6 2.5h43.2v123.2c0 11.4-2.7 21.6-8 30.6s-12.7 15.9-22.2 20.8-20.1 7.4-31.8 7.4c-19.6 0-34.8-4.9-45.6-14.8C5.4 159.8 0 145.8 0 127.7h43.4c0 8.2 1.4 14.2 4.3 17.9s7.6 5.5 14.2 5.5c6 0 10.6-2.2 13.9-6.7 3.2-4.5 4.9-10.7 4.9-18.8V2.5zM228.5 134.3c0-6.3-2.2-11.3-6.7-14.8s-12.4-7.2-23.6-11c-11.3-3.8-20.5-7.4-27.6-11-23.3-11.4-34.9-27.1-34.9-47.1 0-9.9 2.9-18.7 8.7-26.3s14-13.5 24.6-17.8C179.5 2.1 191.5 0 204.7 0c12.9 0 24.5 2.3 34.7 6.9s18.2 11.2 23.9 19.7 8.5 18.2 8.5 29.2h-43.2c0-7.3-2.2-13-6.7-17s-10.5-6-18.2-6-13.8 1.7-18.3 5.1-6.7 7.7-6.7 13c0 4.6 2.5 8.8 7.4 12.5s13.6 7.6 26 11.6 22.6 8.3 30.6 12.9c19.4 11.2 29.1 26.6 29.1 46.2 0 15.7-5.9 28-17.8 37-11.8 9-28.1 13.4-48.7 13.4-14.5 0-27.7-2.6-39.5-7.8s-20.7-12.4-26.6-21.5c-6-9.1-8.9-19.5-8.9-31.4h43.4c0 9.6 2.5 16.7 7.5 21.3s13 6.8 24.2 6.8c7.2 0 12.8-1.5 17-4.6 4-3.1 6.1-7.4 6.1-13z" fill="#0070df"/><path d="M435.6 182h-43v-75h-63.7v75h-43.3V2.5h43.3v71.3h63.7V2.5h43zM515.5 184.5c-20.5 0-37-6.1-49.7-18.3s-19-28.1-19-47.7V115c0-13.6 2.5-25.7 7.6-36.1s12.4-18.5 22.1-24.2 21.2-8.6 34.5-8.6c18.7 0 33.5 5.8 44.4 17.4s16.3 27.8 16.3 48.6v16.2h-82.6c1.5 7.5 4.7 13.4 9.7 17.6 5 4.3 11.5 6.4 19.5 6.4 13.2 0 23.4-4.6 30.8-13.8l19 22.4c-5.2 7.2-12.5 12.8-22 17.1s-19.7 6.5-30.6 6.5zm-4.7-106.3c-12.2 0-19.4 8.1-21.7 24.2H531v-3.2c.2-6.7-1.5-11.8-5.1-15.5-3.4-3.7-8.5-5.5-15.1-5.5zM664.1 86.2l-13.7-1c-13.1 0-21.5 4.1-25.2 12.3V182h-41.6V48.6h39l1.4 17.1c7-13.1 16.7-19.6 29.2-19.6 4.4 0 8.3.5 11.6 1.5zM666.3 114.1c0-13.3 2.6-25.2 7.8-35.6s12.6-18.4 22.3-24 21.1-8.4 34.2-8.4c20 0 35.7 6.2 47.2 18.6C789.2 77 795 93.9 795 115.2v1.5c0 20.8-5.8 37.3-17.3 49.5s-27.2 18.3-46.9 18.3c-19 0-34.2-5.7-45.7-17.1s-17.7-26.8-18.6-46.3zm41.5 2.5c0 12.3 1.9 21.4 5.8 27.1 3.9 5.8 9.6 8.6 17.1 8.6 14.8 0 22.4-11.4 22.7-34.2v-4.2c0-23.9-7.6-35.9-22.9-35.9-13.9 0-21.4 10.3-22.6 30.9zM872.8 184.5c-20.5 0-37-6.1-49.7-18.3s-19-28.1-19-47.7V115c0-13.6 2.5-25.7 7.6-36.1s12.4-18.5 22.1-24.2 21.2-8.6 34.5-8.6c18.7 0 33.5 5.8 44.4 17.4S929 91.3 929 112.1v16.2h-82.6c1.5 7.5 4.7 13.4 9.7 17.6 5 4.3 11.5 6.4 19.5 6.4 13.2 0 23.4-4.6 30.8-13.8l19 22.4c-5.2 7.2-12.5 12.8-22 17.1s-19.7 6.5-30.6 6.5zm-4.7-106.3c-12.2 0-19.4 8.1-21.7 24.2h41.9v-3.2c.2-6.7-1.5-11.8-5.1-15.5-3.5-3.7-8.5-5.5-15.1-5.5zM1010.5 144.5c0-3.5-1.8-6.4-5.5-8.5s-10.7-4.4-21.1-6.7-18.9-5.3-25.6-9.1c-6.7-3.7-11.9-8.3-15.4-13.6s-5.3-11.5-5.3-18.4c0-12.2 5.1-22.3 15.2-30.3C962.9 50 976.1 46 992.5 46c17.6 0 31.7 4 42.4 12s16 18.5 16 31.4h-41.7c0-10.7-5.6-16-16.9-16-4.4 0-8 1.2-11 3.6s-4.4 5.4-4.4 9.1 1.8 6.7 5.4 9 9.4 4.2 17.3 5.7 14.9 3.2 20.9 5.3c20.1 6.9 30.1 19.3 30.1 37.1 0 12.2-5.4 22.1-16.2 29.7s-24.8 11.5-42 11.5c-11.4 0-21.6-2.1-30.6-6.2s-15.9-9.7-21-16.8c-5-7.1-7.5-14.5-7.5-22.3h38.8c.2 6.2 2.2 10.7 6.2 13.5 3.9 2.8 9 4.3 15.2 4.3 5.7 0 9.9-1.1 12.8-3.5 2.8-2.2 4.2-5.2 4.2-8.9z"/></svg>