<?xml version="1.0" encoding="UTF-8" standalone="no"?>
<!-- Created with Inkscape (http://www.inkscape.org/) -->

<svg
   xmlns:dc="http://purl.org/dc/elements/1.1/"
   xmlns:cc="http://creativecommons.org/ns#"
   xmlns:rdf="http://www.w3.org/1999/02/22-rdf-syntax-ns#"
   xmlns:svg="http://www.w3.org/2000/svg"
   xmlns="http://www.w3.org/2000/svg"
   xmlns:sodipodi="http://sodipodi.sourceforge.net/DTD/sodipodi-0.dtd"
   xmlns:inkscape="http://www.inkscape.org/namespaces/inkscape"
   width="112.88889mm"
   height="112.88889mm"
   viewBox="0 0 400.00002 400.00001"
   id="svg2"
   version="1.1"
   inkscape:version="0.91 r13725"
   sodipodi:docname="iasijs_new_logo.svg">
  <defs
     id="defs4" />
  <sodipodi:namedview
     id="base"
     pagecolor="#ffffff"
     bordercolor="#666666"
     borderopacity="1.0"
     inkscape:pageopacity="0.0"
     inkscape:pageshadow="2"
     inkscape:zoom="0.24748737"
     inkscape:cx="-640.92392"
     inkscape:cy="750.22653"
     inkscape:document-units="px"
     inkscape:current-layer="layer1"
     showgrid="false"
     showguides="false"
     fit-margin-top="0"
     fit-margin-left="0"
     fit-margin-right="0"
     fit-margin-bottom="0"
     inkscape:window-width="2560"
     inkscape:window-height="1389"
     inkscape:window-x="0"
     inkscape:window-y="27"
     inkscape:window-maximized="1" />
  <metadata
     id="metadata7">
    <rdf:RDF>
      <cc:Work
         rdf:about="">
        <dc:format>image/svg+xml</dc:format>
        <dc:type
           rdf:resource="http://purl.org/dc/dcmitype/StillImage" />
        <dc:title></dc:title>
      </cc:Work>
    </rdf:RDF>
  </metadata>
  <g
     inkscape:label="Layer 1"
     inkscape:groupmode="layer"
     id="layer1">
    <g
       id="g4355"
       transform="translate(-15.984017,-9.5888758)">
      <rect
         y="9.5888758"
         x="15.984017"
         height="400"
         width="400"
         id="rect4136"
         style="color:#000000;clip-rule:nonzero;display:inline;overflow:visible;visibility:visible;opacity:1;isolation:auto;mix-blend-mode:normal;color-interpolation:sRGB;color-interpolation-filters:linearRGB;solid-color:#000000;solid-opacity:1;fill:#ffcc06;fill-opacity:1;fill-rule:evenodd;stroke:none;stroke-width:1;stroke-linecap:butt;stroke-linejoin:miter;stroke-miterlimit:4;stroke-dasharray:none;stroke-dashoffset:0;stroke-opacity:1;color-rendering:auto;image-rendering:auto;shape-rendering:auto;text-rendering:auto;enable-background:accumulate" />
      <path
         inkscape:connector-curvature="0"
         id="rect4136-3"
         d="m 415.98402,287.1295 -122.45938,122.45938 122.45938,0 0,-122.45938 z"
         style="color:#000000;clip-rule:nonzero;display:inline;overflow:visible;visibility:visible;opacity:1;isolation:auto;mix-blend-mode:normal;color-interpolation:sRGB;color-interpolation-filters:linearRGB;solid-color:#000000;solid-opacity:1;fill:#ffe957;fill-opacity:1;fill-rule:evenodd;stroke:none;stroke-width:1;stroke-linecap:butt;stroke-linejoin:miter;stroke-miterlimit:4;stroke-dasharray:none;stroke-dashoffset:0;stroke-opacity:1;color-rendering:auto;image-rendering:auto;shape-rendering:auto;text-rendering:auto;enable-background:accumulate" />
      <path
         d="m 244.14733,377.60458 q -7.24204,0 -15.21877,-1.78427 -7.87178,-1.78427 -7.87178,-6.92717 0,-2.30905 0.73469,-6.29742 0.83966,-4.09333 2.51897,-7.45195 1.78427,-3.35863 4.4082,-3.56854 0.52479,0 2.41401,0.41982 4.51316,1.04957 7.97674,1.04957 8.50153,0 12.07007,-4.51315 3.67349,-4.61811 3.67349,-14.9039 l 0,-82.60122 q 0,-6.19247 11.12545,-6.19247 l 6.6123,0 q 11.12545,0 11.12545,6.19247 l 0,87.21933 q 0,18.68236 -9.65605,29.07311 -9.65605,10.28579 -29.91277,10.28579 z"
         style="font-style:normal;font-variant:normal;font-weight:normal;font-stretch:normal;font-size:medium;line-height:125%;font-family:Jaldi;-inkscape-font-specification:Jaldi;letter-spacing:0px;word-spacing:0px;fill:#030017;fill-opacity:1;stroke:none;stroke-width:1px;stroke-linecap:butt;stroke-linejoin:miter;stroke-opacity:1"
         id="path4336"
         inkscape:connector-curvature="0" />
      <path
         d="m 344.17142,377.60458 q -13.22459,0 -23.30047,-2.62393 -9.97092,-2.72888 -15.32373,-6.61229 -5.24786,-3.88341 -5.24786,-7.347 0,-2.72888 1.99419,-6.71725 2.09914,-3.98837 4.93298,-6.82221 2.83384,-2.9388 4.72307,-2.9388 1.15453,0 4.93298,1.99419 5.66768,2.93879 10.70562,4.72306 5.1429,1.78427 11.75519,1.78427 7.347,0 12.38494,-2.83384 5.1429,-2.93879 5.1429,-10.18083 0,-4.19829 -2.62393,-7.24204 -2.62393,-3.04376 -6.71725,-5.1429 -4.09333,-2.09914 -11.12545,-4.93298 l -8.29161,-3.56854 q -7.55691,-3.6735 -13.01468,-8.08169 -5.35281,-4.4082 -8.81639,-11.65024 -3.35863,-7.24204 -3.35863,-17.73775 0,-12.80476 6.29742,-21.30628 6.29743,-8.50152 16.37331,-12.48989 10.07588,-3.98837 21.62115,-3.98837 9.44614,0 17.10801,1.99418 7.66186,1.88923 11.9651,4.93298 4.4082,3.04376 4.4082,6.08751 0,2.51897 -1.67931,6.50734 -1.57436,3.88342 -3.98837,6.82221 -2.41401,2.9388 -4.51315,2.9388 -0.94462,0 -3.35863,-1.04957 -3.88341,-1.57436 -7.87178,-2.51897 -3.88341,-1.04957 -9.5511,-1.04957 -9.761,0 -13.53946,3.14871 -3.77845,3.04376 -3.77845,7.24204 0,4.82803 2.51897,8.0817 2.62392,3.25366 6.50734,5.35281 3.98836,2.09914 11.02049,4.82802 10.60066,4.51316 17.31792,8.60648 6.71725,3.98837 11.54527,11.54528 4.93299,7.55691 4.93299,19.3121 0,14.37912 -6.08751,23.61534 -5.98256,9.13127 -15.53365,13.22459 -9.44614,4.09333 -20.46663,4.09333 z"
         style="font-style:normal;font-variant:normal;font-weight:normal;font-stretch:normal;font-size:medium;line-height:125%;font-family:Jaldi;-inkscape-font-specification:Jaldi;letter-spacing:0px;word-spacing:0px;fill:#030017;fill-opacity:1;stroke:none;stroke-width:1px;stroke-linecap:butt;stroke-linejoin:miter;stroke-opacity:1"
         id="path4338"
         inkscape:connector-curvature="0" />
      <path
         d="m 88.684936,313.68574 0,-48.27814 9.79273,-1.46891 0,49.74705 -9.79273,0 z m 4.89637,-56.30818 q -3.52539,0 -4.79844,-1.27305 -1.17513,-1.27306 -1.17513,-4.50466 0,-3.32952 1.17513,-4.60258 1.27305,-1.37098 4.79844,-1.37098 3.6233,0 4.79843,1.37098 1.27306,1.27306 1.27306,4.60258 0,3.2316 -1.27306,4.50466 -1.17513,1.27305 -4.79843,1.27305 z"
         style="font-style:normal;font-variant:normal;font-weight:normal;font-stretch:normal;font-size:medium;line-height:125%;font-family:Changa;-inkscape-font-specification:Changa;letter-spacing:0px;word-spacing:0px;fill:#030017;fill-opacity:1;stroke:none;stroke-width:1px;stroke-linecap:butt;stroke-linejoin:miter;stroke-opacity:1"
         id="path4343"
         inkscape:connector-curvature="0" />
      <path
         d="m 122.49892,305.75363 11.16371,0 q 4.3088,0 5.97356,-1.0772 1.7627,-1.0772 1.7627,-4.60258 l 0,-8.71553 -11.16371,0 q -4.3088,0 -6.07149,1.0772 -1.66477,1.0772 -1.66477,4.60259 l 0,8.71552 z m 4.40673,8.91138 q -14.29738,0 -14.29738,-15.17872 0,-8.81346 5.67978,-12.53469 5.77771,-3.81917 16.84349,-3.81917 l 6.26735,0 0,-9.79272 q -3.03575,-0.39171 -7.34455,-0.39171 -9.98858,0 -15.86422,2.05647 l -1.17512,-8.22589 q 9.10723,-3.03575 17.43105,-3.03575 8.42174,0 12.53469,2.83989 4.11294,2.74197 4.11294,10.96786 l 0,36.13516 -4.50465,0 -2.64404,-4.89636 q -6.56112,5.87563 -17.03934,5.87563 z"
         style="font-style:normal;font-variant:normal;font-weight:normal;font-stretch:normal;font-size:medium;line-height:125%;font-family:Changa;-inkscape-font-specification:Changa;letter-spacing:0px;word-spacing:0px;fill:#030017;fill-opacity:1;stroke:none;stroke-width:1px;stroke-linecap:butt;stroke-linejoin:miter;stroke-opacity:1"
         id="path4345"
         inkscape:connector-curvature="0" />
      <path
         d="m 164.62754,278.334 q 0,-15.0808 16.45178,-15.0808 8.12796,0 15.57043,2.35025 l -1.76269,9.10724 q -7.05076,-2.1544 -14.29738,-2.1544 -2.05647,0 -6.16942,0.39171 l 0,9.98858 q 14.78702,2.1544 19.97717,6.07149 5.28807,3.81916 5.28807,11.35956 0,7.44248 -3.42746,10.96786 -3.62331,3.81916 -13.51396,3.81916 -9.79273,0 -18.41033,-2.44818 l 1.86062,-9.40102 q 7.73626,2.54611 16.84349,2.54611 3.32953,0 6.85491,-0.39171 l 0,-9.00931 q -15.27665,-2.1544 -20.27094,-5.87563 -4.99429,-3.72124 -4.99429,-12.24091 z"
         style="font-style:normal;font-variant:normal;font-weight:normal;font-stretch:normal;font-size:medium;line-height:125%;font-family:Changa;-inkscape-font-specification:Changa;letter-spacing:0px;word-spacing:0px;fill:#030017;fill-opacity:1;stroke:none;stroke-width:1px;stroke-linecap:butt;stroke-linejoin:miter;stroke-opacity:1"
         id="path4347"
         inkscape:connector-curvature="0" />
      <path
         d="m 212.8154,313.68574 0,-48.27814 9.79273,-1.46891 0,49.74705 -9.79273,0 z m 4.89637,-56.30818 q -3.52538,0 -4.79844,-1.27305 -1.17513,-1.27306 -1.17513,-4.50466 0,-3.32952 1.17513,-4.60258 1.27306,-1.37098 4.79844,-1.37098 3.62331,0 4.79843,1.37098 1.27306,1.27306 1.27306,4.60258 0,3.2316 -1.27306,4.50466 -1.17512,1.27305 -4.79843,1.27305 z"
         style="font-style:normal;font-variant:normal;font-weight:normal;font-stretch:normal;font-size:medium;line-height:125%;font-family:Changa;-inkscape-font-specification:Changa;letter-spacing:0px;word-spacing:0px;fill:#030017;fill-opacity:1;stroke:none;stroke-width:1px;stroke-linecap:butt;stroke-linejoin:miter;stroke-opacity:1"
         id="path4349"
         inkscape:connector-curvature="0" />
    </g>
  </g>
</svg>
