<svg width="160" height="41" viewBox="0 0 160 41" fill="none" xmlns="http://www.w3.org/2000/svg">
<path d="M142.462 6.73563H143.912V9.97284H147.722V6.73563H149.172V14.8775H147.722V11.2951H143.912V14.8775H142.462V6.73563Z" fill="#161616"/>
<path d="M159.513 14.8645H154.775C154.174 14.8702 153.576 14.771 153.009 14.5714C152.489 14.3893 152.012 14.1047 151.605 13.7344C151.202 13.3615 150.884 12.9074 150.671 12.4024C150.442 11.8393 150.33 11.2351 150.344 10.6275C150.34 10.078 150.451 9.53358 150.669 9.02896C150.887 8.52435 151.208 8.07052 151.611 7.69636C152.008 7.32927 152.471 7.0408 152.976 6.84635C154.04 6.44067 155.217 6.44067 156.281 6.84635C156.777 7.03537 157.233 7.31478 157.626 7.67031C158.029 8.04472 158.35 8.49859 158.568 9.00315C158.786 9.50771 158.897 10.052 158.893 10.6014C158.899 10.9839 158.846 11.365 158.736 11.7315C158.642 12.0362 158.505 12.3257 158.328 12.5913C158.173 12.825 157.985 13.0356 157.77 13.2166C157.583 13.3736 157.384 13.5162 157.175 13.6432V13.666H159.513V14.8645ZM154.573 7.8364C154.2 7.83274 153.83 7.90476 153.486 8.04809C153.16 8.18649 152.867 8.39051 152.624 8.64734C152.377 8.90616 152.183 9.21033 152.052 9.54295C151.912 9.9019 151.842 10.2845 151.847 10.6698C151.843 11.0635 151.912 11.4545 152.052 11.8227C152.18 12.164 152.376 12.4763 152.627 12.7411C152.873 12.998 153.168 13.2029 153.495 13.3436C153.843 13.492 154.218 13.5663 154.596 13.5618C154.977 13.5653 155.355 13.4911 155.706 13.3436C156.038 13.205 156.338 13 156.588 12.7411C156.839 12.4761 157.034 12.1639 157.162 11.8227C157.302 11.4545 157.372 11.0635 157.368 10.6698C157.373 10.2845 157.303 9.9019 157.162 9.54295C157.032 9.2096 156.837 8.90525 156.588 8.64734C156.338 8.39157 156.038 8.18982 155.706 8.05461C155.347 7.9079 154.961 7.83374 154.573 7.8364V7.8364Z" fill="#161616"/>
<path d="M37.551 17.9291V15.086H40.3168V11.2137H43.6702V15.086H47.347V17.9291H43.6702V23.7913C43.6418 24.3462 43.7733 24.8977 44.049 25.3806C44.2993 25.7714 44.7978 25.9668 45.5445 25.9668C45.8733 25.964 46.2012 25.9313 46.5241 25.8691C46.8246 25.8241 47.1113 25.7128 47.3633 25.5434V28.3507C46.9489 28.5343 46.5081 28.6519 46.0572 28.6992C45.6079 28.7598 45.1554 28.7925 44.7021 28.7969C43.9595 28.8184 43.2185 28.7194 42.5078 28.5038C41.9846 28.3394 41.5191 28.0299 41.1657 27.6115C40.8214 27.1769 40.5893 26.6647 40.4898 26.1199C40.3604 25.4404 40.2992 24.7499 40.307 24.0583V17.9291H37.551Z" fill="#161616"/>
<path d="M51.4122 22.9445C51.441 23.3918 51.5582 23.829 51.7572 24.2309C51.9561 24.6328 52.2329 24.9914 52.5714 25.2861C53.2537 25.8478 54.1164 26.145 55.0008 26.1231C55.7381 26.1489 56.4681 25.9708 57.1102 25.6086C57.6794 25.2624 58.1852 24.8218 58.6057 24.3059L61.009 26.1166C60.3229 27.009 59.4253 27.7174 58.3967 28.1781C57.4332 28.5855 56.3968 28.7938 55.3502 28.7904C54.3774 28.7966 53.4116 28.6266 52.4996 28.2889C51.6391 27.9755 50.8507 27.4926 50.1812 26.8689C49.5196 26.2428 48.9919 25.4894 48.6302 24.6543C48.239 23.7431 48.0443 22.76 48.0588 21.7688C48.0443 20.7777 48.239 19.7946 48.6302 18.8833C48.992 18.0483 49.5196 17.295 50.1812 16.6687C50.8508 16.0453 51.6392 15.5624 52.4996 15.2488C53.4116 14.9112 54.3774 14.7413 55.3502 14.7473C56.2267 14.7373 57.0962 14.9035 57.9069 15.2358C58.666 15.5506 59.3445 16.0314 59.8923 16.6427C60.4713 17.308 60.9089 18.0836 61.1788 18.9224C61.5016 19.926 61.6572 20.9756 61.6392 22.0294V22.9445H51.4122ZM58.2694 20.4368C58.283 20.0071 58.2083 19.5791 58.05 19.1792C57.8916 18.7793 57.6529 18.416 57.3486 18.1115C56.7521 17.5448 55.9238 17.2615 54.8637 17.2615C54.4277 17.2386 53.9915 17.3033 53.5809 17.4515C53.1704 17.5997 52.7938 17.8286 52.4735 18.1245C51.863 18.7516 51.4842 19.5669 51.3992 20.4368H58.2694Z" fill="#161616"/>
<path d="M63.8629 7.39675H67.2163V28.4615H63.8629V7.39675Z" fill="#161616"/>
<path d="M72.7902 22.9445C72.8206 23.3928 72.9399 23.8305 73.1411 24.2325C73.3423 24.6344 73.6215 24.9925 73.9624 25.2861C74.6495 25.8504 75.5186 26.1466 76.4082 26.1199C77.1454 26.1456 77.8755 25.9675 78.5176 25.6053C79.0868 25.2591 79.5925 24.8185 80.0131 24.3026L82.4163 26.1134C81.7302 27.0057 80.8326 27.7141 79.8041 28.1749C78.8341 28.5886 77.7896 28.8003 76.7347 28.7969C75.7619 28.8031 74.796 28.6331 73.8841 28.2954C73.0236 27.982 72.2352 27.4991 71.5657 26.8754C70.904 26.2493 70.3764 25.4959 70.0147 24.6608C69.6235 23.7496 69.4288 22.7665 69.4433 21.7754C69.4288 20.7842 69.6235 19.8011 70.0147 18.8899C70.3765 18.0548 70.9041 17.3015 71.5657 16.6753C72.2353 16.0518 73.0237 15.5689 73.8841 15.2553C74.7959 14.9166 75.7617 14.7456 76.7347 14.7505C77.6112 14.7406 78.4807 14.9067 79.2914 15.239C80.0505 15.5538 80.729 16.0346 81.2767 16.646C81.8558 17.3113 82.2934 18.0868 82.5633 18.9257C82.8861 19.9292 83.0416 20.9788 83.0237 22.0326V22.9445H72.7902ZM79.6473 20.4368C79.661 20.0071 79.5863 19.5791 79.4279 19.1792C79.2696 18.7793 79.0309 18.416 78.7265 18.1115C78.1301 17.5448 77.3018 17.2615 76.2416 17.2615C75.8056 17.2386 75.3694 17.3033 74.9589 17.4515C74.5483 17.5997 74.1717 17.8286 73.8514 18.1245C73.2409 18.7516 72.8621 19.5669 72.7771 20.4368H79.6473Z" fill="#161616"/>
<path d="M85.1853 15.086H88.369V17.0921H88.4245C88.8731 16.3065 89.5587 15.682 90.3837 15.3074C91.2179 14.9329 92.1235 14.7429 93.0383 14.7505C93.9883 14.7358 94.9308 14.9211 95.8041 15.2944C96.5977 15.6416 97.3096 16.1509 97.8939 16.7892C98.4767 17.4354 98.9211 18.1934 99.2 19.0169C99.5035 19.9047 99.6548 20.8373 99.6473 21.7753C99.6543 22.7158 99.4929 23.65 99.1706 24.5338C98.875 25.3548 98.425 26.1119 97.8449 26.7647C97.2725 27.3998 96.5728 27.908 95.791 28.2563C94.9694 28.6221 94.0785 28.8076 93.1788 28.8002C92.6142 28.8081 92.0511 28.7424 91.5037 28.6048C91.0562 28.4897 90.6242 28.3213 90.2171 28.1032C89.8768 27.9226 89.558 27.7041 89.2669 27.4519C89.0271 27.246 88.8083 27.0169 88.6139 26.768H88.529V34.8154H85.1853V15.086ZM96.3037 21.7753C96.305 21.2622 96.2155 20.7528 96.0392 20.2707C95.8665 19.7951 95.6 19.3588 95.2555 18.9876C94.8848 18.5933 94.4369 18.279 93.9396 18.0642C93.4422 17.8493 92.906 17.7385 92.3641 17.7385C91.8221 17.7385 91.2859 17.8493 90.7886 18.0642C90.2913 18.279 89.8434 18.5933 89.4726 18.9876C89.1279 19.3586 88.8614 19.795 88.689 20.2707C88.3352 21.2428 88.3352 22.3079 88.689 23.28C88.8613 23.7557 89.1278 24.1921 89.4726 24.5631C89.8431 24.9578 90.2909 25.2725 90.7883 25.4876C91.2856 25.7027 91.822 25.8137 92.3641 25.8137C92.9062 25.8137 93.4425 25.7027 93.9399 25.4876C94.4372 25.2725 94.885 24.9578 95.2555 24.5631C95.6001 24.192 95.8666 23.7556 96.0392 23.28C96.2155 22.7979 96.3051 22.2885 96.3037 21.7753V21.7753Z" fill="#161616"/>
<path d="M101.084 21.7753C101.07 20.7842 101.264 19.8011 101.656 18.8899C102.017 18.0548 102.545 17.3015 103.207 16.6753C103.876 16.0518 104.665 15.5689 105.525 15.2553C107.365 14.5867 109.383 14.5867 111.223 15.2553C112.083 15.5689 112.872 16.0518 113.541 16.6753C114.203 17.3015 114.73 18.0548 115.092 18.8899C115.484 19.8009 115.68 20.784 115.667 21.7753C115.68 22.7667 115.484 23.7498 115.092 24.6608C114.73 25.4959 114.203 26.2492 113.541 26.8754C112.872 27.4991 112.083 27.982 111.223 28.2954C109.383 28.964 107.365 28.964 105.525 28.2954C104.664 27.982 103.876 27.4991 103.207 26.8754C102.545 26.2492 102.017 25.4958 101.656 24.6608C101.264 23.7496 101.07 22.7665 101.084 21.7753V21.7753ZM104.438 21.7753C104.436 22.2885 104.525 22.798 104.702 23.28C104.874 23.7559 105.141 24.1923 105.486 24.5631C105.856 24.9578 106.304 25.2725 106.801 25.4876C107.299 25.7027 107.835 25.8137 108.377 25.8137C108.919 25.8137 109.456 25.7027 109.953 25.4876C110.45 25.2725 110.898 24.9578 111.269 24.5631C111.613 24.1919 111.88 23.7556 112.052 23.28C112.406 22.3079 112.406 21.2428 112.052 20.2707C111.88 19.7951 111.613 19.3588 111.269 18.9876C110.898 18.5933 110.45 18.279 109.953 18.0642C109.455 17.8493 108.919 17.7385 108.377 17.7385C107.835 17.7385 107.299 17.8493 106.802 18.0642C106.304 18.279 105.856 18.5933 105.486 18.9876C105.141 19.3585 104.874 19.7949 104.702 20.2707C104.525 20.7527 104.436 21.2622 104.438 21.7753V21.7753Z" fill="#161616"/>
<path d="M117.786 15.086H121.143V17.2029H121.198C121.536 16.4591 122.084 15.8298 122.776 15.3921C123.489 14.9542 124.312 14.7282 125.149 14.7407C125.351 14.7405 125.552 14.759 125.75 14.7961C125.946 14.8352 126.145 14.8808 126.351 14.9361V18.1669C126.072 18.093 125.798 18.0322 125.528 17.9845C125.266 17.9438 125 17.9253 124.735 17.9291C124.078 17.8984 123.425 18.0482 122.847 18.3623C122.418 18.6059 122.046 18.9391 121.757 19.3393C121.521 19.676 121.35 20.0538 121.254 20.4531C121.185 20.7273 121.143 21.0077 121.13 21.2901V28.455H117.786V15.086Z" fill="#161616"/>
<path d="M126.958 17.9291V15.086H129.724V11.2137H133.078V15.086H136.764V17.9291H133.078V23.7913C133.049 24.3458 133.179 24.897 133.453 25.3806C133.703 25.7714 134.202 25.9668 134.949 25.9668C135.277 25.964 135.605 25.9313 135.928 25.8691C136.229 25.8241 136.515 25.7128 136.767 25.5434V28.3507C136.353 28.5343 135.912 28.6519 135.461 28.6992C135.012 28.7598 134.559 28.7925 134.106 28.7969C133.366 28.8209 132.627 28.7252 131.918 28.5136C131.395 28.3492 130.93 28.0397 130.576 27.6212C130.234 27.1861 130.004 26.6739 129.907 26.1296C129.777 25.4502 129.716 24.7596 129.724 24.0681V17.9291H126.958Z" fill="#161616"/>
<path d="M0 12.5C0 10.567 1.567 9 3.5 9H16.5C18.433 9 20 10.567 20 12.5V25.5C20 27.433 18.433 29 16.5 29H3.5C1.567 29 0 27.433 0 25.5V12.5Z" fill="#854AF6"/>
<path d="M30 12.5C30 18.299 25.299 23 19.5 23C13.701 23 9 18.299 9 12.5C9 6.70101 13.701 2 19.5 2C25.299 2 30 6.70101 30 12.5Z" fill="#FF6447"/>
<path d="M31.6291 24.4172C33.5942 25.5784 33.5942 28.4216 31.6291 29.5828L18.5262 37.3254C16.5263 38.5072 14 37.0656 14 34.7427L14 19.2573C14 16.9344 16.5263 15.4928 18.5262 16.6746L31.6291 24.4172Z" fill="#00BBE6"/>
</svg>
