<svg height="112.88889mm" viewBox="0 0 400.00002 400.00001" width="112.88889mm" xmlns="http://www.w3.org/2000/svg"><g transform="translate(-15.984017 -9.588876)"><path d="m15.984017 9.588876h400v400h-400z" fill="#ffcc06" fill-rule="evenodd"/><path d="m415.98402 287.1295-122.45938 122.45938h122.45938z" fill="#ffe957" fill-rule="evenodd"/><g fill="#030017"><path d="m244.14733 377.60458q-7.24204 0-15.21877-1.78427-7.87178-1.78427-7.87178-6.92717 0-2.30905.73469-6.29742.83966-4.09333 2.51897-7.45195 1.78427-3.35863 4.4082-3.56854.52479 0 2.41401.41982 4.51316 1.04957 7.97674 1.04957 8.50153 0 12.07007-4.51315 3.67349-4.61811 3.67349-14.9039v-82.60122q0-6.19247 11.12545-6.19247h6.6123q11.12545 0 11.12545 6.19247v87.21933q0 18.68236-9.65605 29.07311-9.65605 10.28579-29.91277 10.28579z"/><path d="m344.17142 377.60458q-13.22459 0-23.30047-2.62393-9.97092-2.72888-15.32373-6.61229-5.24786-3.88341-5.24786-7.347 0-2.72888 1.99419-6.71725 2.09914-3.98837 4.93298-6.82221 2.83384-2.9388 4.72307-2.9388 1.15453 0 4.93298 1.99419 5.66768 2.93879 10.70562 4.72306 5.1429 1.78427 11.75519 1.78427 7.347 0 12.38494-2.83384 5.1429-2.93879 5.1429-10.18083 0-4.19829-2.62393-7.24204-2.62393-3.04376-6.71725-5.1429-4.09333-2.09914-11.12545-4.93298l-8.29161-3.56854q-7.55691-3.6735-13.01468-8.08169-5.35281-4.4082-8.81639-11.65024-3.35863-7.24204-3.35863-17.73775 0-12.80476 6.29742-21.30628 6.29743-8.50152 16.37331-12.48989 10.07588-3.98837 21.62115-3.98837 9.44614 0 17.10801 1.99418 7.66186 1.88923 11.9651 4.93298 4.4082 3.04376 4.4082 6.08751 0 2.51897-1.67931 6.50734-1.57436 3.88342-3.98837 6.82221-2.41401 2.9388-4.51315 2.9388-.94462 0-3.35863-1.04957-3.88341-1.57436-7.87178-2.51897-3.88341-1.04957-9.5511-1.04957-9.761 0-13.53946 3.14871-3.77845 3.04376-3.77845 7.24204 0 4.82803 2.51897 8.0817 2.62392 3.25366 6.50734 5.35281 3.98836 2.09914 11.02049 4.82802 10.60066 4.51316 17.31792 8.60648 6.71725 3.98837 11.54527 11.54528 4.93299 7.55691 4.93299 19.3121 0 14.37912-6.08751 23.61534-5.98256 9.13127-15.53365 13.22459-9.44614 4.09333-20.46663 4.09333z"/><path d="m88.684936 313.68574v-48.27814l9.79273-1.46891v49.74705zm4.89637-56.30818q-3.52539 0-4.79844-1.27305-1.17513-1.27306-1.17513-4.50466 0-3.32952 1.17513-4.60258 1.27305-1.37098 4.79844-1.37098 3.6233 0 4.79843 1.37098 1.27306 1.27306 1.27306 4.60258 0 3.2316-1.27306 4.50466-1.17513 1.27305-4.79843 1.27305z"/><path d="m122.49892 305.75363h11.16371q4.3088 0 5.97356-1.0772 1.7627-1.0772 1.7627-4.60258v-8.71553h-11.16371q-4.3088 0-6.07149 1.0772-1.66477 1.0772-1.66477 4.60259zm4.40673 8.91138q-14.29738 0-14.29738-15.17872 0-8.81346 5.67978-12.53469 5.77771-3.81917 16.84349-3.81917h6.26735v-9.79272q-3.03575-.39171-7.34455-.39171-9.98858 0-15.86422 2.05647l-1.17512-8.22589q9.10723-3.03575 17.43105-3.03575 8.42174 0 12.53469 2.83989 4.11294 2.74197 4.11294 10.96786v36.13516h-4.50465l-2.64404-4.89636q-6.56112 5.87563-17.03934 5.87563z"/><path d="m164.62754 278.334q0-15.0808 16.45178-15.0808 8.12796 0 15.57043 2.35025l-1.76269 9.10724q-7.05076-2.1544-14.29738-2.1544-2.05647 0-6.16942.39171v9.98858q14.78702 2.1544 19.97717 6.07149 5.28807 3.81916 5.28807 11.35956 0 7.44248-3.42746 10.96786-3.62331 3.81916-13.51396 3.81916-9.79273 0-18.41033-2.44818l1.86062-9.40102q7.73626 2.54611 16.84349 2.54611 3.32953 0 6.85491-.39171v-9.00931q-15.27665-2.1544-20.27094-5.87563-4.99429-3.72124-4.99429-12.24091z"/><path d="m212.8154 313.68574v-48.27814l9.79273-1.46891v49.74705zm4.89637-56.30818q-3.52538 0-4.79844-1.27305-1.17513-1.27306-1.17513-4.50466 0-3.32952 1.17513-4.60258 1.27306-1.37098 4.79844-1.37098 3.62331 0 4.79843 1.37098 1.27306 1.27306 1.27306 4.60258 0 3.2316-1.27306 4.50466-1.17512 1.27305-4.79843 1.27305z"/></g></g></svg>