<svg id="Layer_1" data-name="Layer 1" xmlns="http://www.w3.org/2000/svg" viewBox="0 0 721 215.11"><defs><style>.cls-1{fill:#f45919;}.cls-2{fill:#000;}</style></defs><title>logo-revojs</title><path class="cls-1" d="M2,106.29V258.13H153.84l63.27-63.27V43H65.27Zm75.92,63.27V118.94h75.92v25.31H103.23v50.62H77.92V169.56Z" transform="translate(-2 -43.02)"/><path class="cls-2" d="M463.27,148.9l-8.65,27.66h-0.19l-8.65-27.66-9.7-31H416.29l18,59.6,1.1,3.19c3.22,8.55,10.41,14.53,19,14.55h0.26c8.54,0,15.74-6,19-14.55l1.1-3.19,18-59.6H473Z" transform="translate(-2 -43.02)"/><path class="cls-2" d="M619.57,194.3a8,8,0,0,1-8,8h-5.93V220h9A25.35,25.35,0,0,0,640,194.61V117.77H619.57V194.3Z" transform="translate(-2 -43.02)"/><path class="cls-2" d="M721,160.7a18.83,18.83,0,0,0-5.4-6,29.38,29.38,0,0,0-7.69-3.93,89.21,89.21,0,0,0-8.87-2.54q-4.4-1-8.65-2a66.93,66.93,0,0,1-7.55-2,15.87,15.87,0,0,1-5.35-2.89,5.71,5.71,0,0,1-2-4.56,5.62,5.62,0,0,1,1.19-3.74,7.71,7.71,0,0,1,2.87-2.12,12.75,12.75,0,0,1,3.75-.94,35.9,35.9,0,0,1,3.82-.2,20.84,20.84,0,0,1,9.68,2.18q4.1,2.15,4.51,8.17l19.83,0.1a24.93,24.93,0,0,0-3.54-11.69,23.78,23.78,0,0,0-7.53-7.45,31.74,31.74,0,0,0-10.33-4,60.24,60.24,0,0,0-12-1.23,65.22,65.22,0,0,0-12,1,33.2,33.2,0,0,0-10.59,3.77,21.14,21.14,0,0,0-7.6,7.38q-2.88,4.69-2.92,12a16.22,16.22,0,0,0,2,8.45,17.83,17.83,0,0,0,5.41,5.75,30.26,30.26,0,0,0,7.69,3.71q4.32,1.42,8.87,2.47a125.13,125.13,0,0,1,17.38,4.78q6.23,2.38,6.21,7.08a7.72,7.72,0,0,1-1.35,4.62,10,10,0,0,1-3.32,2.92,15.75,15.75,0,0,1-4.41,1.59,22.24,22.24,0,0,1-4.63.49,23.74,23.74,0,0,1-5.94-.76,15.41,15.41,0,0,1-5.06-2.3,12.19,12.19,0,0,1-3.58-4,11.45,11.45,0,0,1-1.37-5.81l-19.82-.1A25.47,25.47,0,0,0,656,181.68a25.16,25.16,0,0,0,8,8.19,34.12,34.12,0,0,0,11.21,4.46,62.88,62.88,0,0,0,12.92,1.38,64.71,64.71,0,0,0,12.71-1.19A32.22,32.22,0,0,0,712,190.25a23.07,23.07,0,0,0,11-20.66A17.67,17.67,0,0,0,721,160.7Z" transform="translate(-2 -43.02)"/><path class="cls-2" d="M593.64,116.27h-0.47a11.91,11.91,0,0,0-12,11.86h0a11.91,11.91,0,0,0,11.86,12h0.47A11.91,11.91,0,0,0,593.64,116.27Z" transform="translate(-2 -43.02)"/><path class="cls-2" d="M629.8,80h-0.47a11.92,11.92,0,0,0-.11,23.83h0.47A11.92,11.92,0,1,0,629.8,80Z" transform="translate(-2 -43.02)"/><path class="cls-2" d="M405.25,129.75a33.7,33.7,0,0,0-11.77-10.12,36.09,36.09,0,0,0-16.87-3.83,39.33,39.33,0,0,0-15.8,3,36.68,36.68,0,0,0-20.29,21.05,44.25,44.25,0,0,0-2.87,15.85,46.15,46.15,0,0,0,2.64,16.17,36.66,36.66,0,0,0,7.65,12.67,33.59,33.59,0,0,0,12.15,8.21,43.32,43.32,0,0,0,16.14,2.94q12.92,0.06,22.06-5.77t13.61-19.47l-18.36-.09q-1,3.52-5.61,6.66A18.59,18.59,0,0,1,377,180.13q-8.81,0-13.49-4.62t-5.07-14.71l54.78,0.27a53.68,53.68,0,0,0-1.39-16.9A41.38,41.38,0,0,0,405.25,129.75Zm-46.71,17.84a23.75,23.75,0,0,1,1-5,15.33,15.33,0,0,1,2.82-5.27,15.8,15.8,0,0,1,5.31-4.16,18.17,18.17,0,0,1,8.31-1.65q7.63,0,11.36,4.17t5.16,12.07Z" transform="translate(-2 -43.02)"/><path class="cls-2" d="M563.2,126.88a35.42,35.42,0,0,0-12.37-8.14,44,44,0,0,0-16.21-2.94,43.38,43.38,0,0,0-16.17,2.79,34.72,34.72,0,0,0-20.37,20.61,46.65,46.65,0,0,0-2.87,16.51,46,46,0,0,0,2.71,16.46,35.66,35.66,0,0,0,7.87,12.59,34.62,34.62,0,0,0,12.3,8.06,44.37,44.37,0,0,0,16.14,2.87A45,45,0,0,0,550.47,193,34.56,34.56,0,0,0,562.92,185a35.67,35.67,0,0,0,8-12.52,46,46,0,0,0,2.87-16.43,46.6,46.6,0,0,0-2.71-16.54A35.59,35.59,0,0,0,563.2,126.88Zm-11.2,38a23.7,23.7,0,0,1-3,7.77,15.87,15.87,0,0,1-5.76,5.48,17.67,17.67,0,0,1-8.9,2,17.25,17.25,0,0,1-8.8-2.1,16,16,0,0,1-5.63-5.53,23.64,23.64,0,0,1-3-7.8,44.56,44.56,0,0,1-.84-8.89,45.71,45.71,0,0,1,.92-9,22.86,22.86,0,0,1,3-7.77,16,16,0,0,1,14.5-7.57,17.19,17.19,0,0,1,8.87,2.17,16.74,16.74,0,0,1,5.7,5.53,22.89,22.89,0,0,1,3,7.8,45.61,45.61,0,0,1,.84,9A44.38,44.38,0,0,1,552,164.87Z" transform="translate(-2 -43.02)"/><path class="cls-2" d="M277.2,133.24V194h20.85V138.16h32.58v-20.3H292.58A15.38,15.38,0,0,0,277.2,133.24Z" transform="translate(-2 -43.02)"/></svg>