<svg height="60" viewBox="0 0 168 60" width="168" xmlns="http://www.w3.org/2000/svg" xmlns:xlink="http://www.w3.org/1999/xlink"><radialGradient id="a" cx="50%" cy="0%" r="100%"><stop offset="0" stop-color="#20c6b7"/><stop offset="1" stop-color="#4d9abf"/></radialGradient><linearGradient id="b" x1="67.027581%" x2="67.027578%" y1="84.714092%" y2="0%"><stop offset="0" stop-color="#313d3e"/><stop offset="1" stop-color="#425253"/></linearGradient><g fill="none" fill-rule="evenodd" transform=""><path d="m42.3898785 21.2521008c.3055127.1512605.5601065.3529412.7637816.579832.0254594.0252101.0254594.0252101.0509188.0252101h.0254594l5.8556589-2.4957984c.0254594-.02521.0509188-.0504201.0509188-.0756302s0-.0504202-.0254594-.0756303l-5.4737681-5.420168c-.0254594-.0252101-.0509188-.0252101-.0509188-.0252101h-.0254594c-.0254594 0-.0509188.0252101-.0509188.0756302l-1.1965911 7.3361345c.0254594.0252101.0509187.0756302.0763781.0756302zm-12.1441273-4.9159663c.2800532.4285714.4582689.9327731.5091877 1.4369747 0 .0252101.0254594.0504202.0509188.0756303l8.7071102 3.7058823h.0254593c.0254594 0 .0509188 0 .0509188-.02521.2545939-.2016807.5601065-.3529412.8910785-.4537815.0254594 0 .0509188-.0252101.0509188-.0756303l1.4257257-8.8487395c0-.0252101 0-.0504202-.0254594-.0756302l-5.4483087-5.42016812c-.0254594-.02521008-.0254594-.02521008-.0509188-.02521008s-.0509188.02521008-.0509188.05042017l-6.1357121 9.52941173c-.0254594.0504202-.0254594.1008404 0 .1260505zm29.7365634 13.6386554-9.3435948-9.2773109c-.0254594-.0252101-.0509188-.0252101-.0509188-.0252101h-.0254594l-6.3393872 2.697479c-.0254594.0252101-.0509188.0504202-.0509188.0756303 0 .02521.0254594.0756302.0509188.0756302l15.6320633 6.6302521h.0254594c.0254593 0 .0509187 0 .0509187-.0252101l.0509188-.0504201c.0509188 0 .0509188-.0756303 0-.1008404zm-1.5530226 1.5126051-14.9955786-6.3529412h-.0254594c-.0254594 0-.0509188 0-.0763782.0252101-.4073502.5546218-1.0183754.907563-1.7312383 1.0084033-.0254593 0-.0763781.0252101-.0763781.0756303l-1.6039414 9.8571428c0 .0252101 0 .0504202.0254594.0756303.5601065.4285714.8910786 1.0588235.9674567 1.7647059 0 .0504201.0254594.0756302.0763782.0756302l9.0635416 1.8907563h.0254594c.0254593 0 .0509187 0 .0509187-.0252101l8.29976-8.2436974c.0254594-.0252101.0254594-.0504202.0254594-.0756303s0-.0504202-.0254594-.0756302zm-19.8583214-8.4201681-8.1979225-3.4789916h-.0254594c-.0254594 0-.0509188.0252101-.0763781.0504202-.5601065.8571428-1.5021039 1.3613445-2.5204793 1.3613445-.1527563 0-.3055126-.0252101-.4837284-.0504202h-.0254593c-.0254594 0-.0509188.0252101-.0763782.0504202l-6.7467374 10.4621849c-.0254594.0252101-.0254594.0756302 0 .1008403s.0509187.0252101.0763781.0252101h.0254594l17.9997863-7.6890756c.0254594-.0252101.0509188-.0504202.0509188-.0756303v-.1008403-.1260504c0-.1512605.0254593-.3025211.0509187-.4285715 0-.0504201-.0254594-.0756302-.0509187-.1008403zm9.8782419 18.302521-7.968788-1.6386555h-.0254593c-.0254594 0-.0509188.0252101-.0763782.0252101-.3055126.3781513-.6874034.6806723-1.1456724.8571429-.0254594 0-.0509188.0504201-.0509188.0756302l-1.909454 11.7478992c0 .0504202.0254594.0756302.0509188.1008403h.0509188c.0254594 0 .0509188 0 .0509188-.0252101l11.0493737-10.9663865c.0254594-.0252101.0254594-.0504202.0254594-.0756303 0-.0756302-.0254594-.1008403-.0509188-.1008403zm-11.1257519-.8067227c-.7637816-.302521-1.3238881-.9831933-1.5275632-1.7647059 0-.0252101-.0254594-.0504201-.0763781-.0756302l-14.7664442-3.0504202s0 0-.0254594 0-.0509188.0252101-.0763782.0504202c-.0763781.1260504-.1272969.2268907-.203675.3277311-.0254594.0252101-.0254594.0756302 0 .1008403l13.442556 19.4621849c.0254594.0252101.0254594.0252101.0509188.0252101s.0509188 0 .0509188-.0252101l.8147003-.8067227c0-.0252101.0254594-.0252101.0254594-.0504202l2.2913448-14.117647c.0509188 0 .0509188-.0504202 0-.0756303zm-16.0648729-6.6806723c0 .0504202.0254594.0756303.0763782.0756303l14.6391472 3.0252101h.0254594c.0254594 0 .0509188-.0252101.0763782-.0504202.4328095-.7563025 1.1965911-1.2605042 2.0622103-1.3109244.0509188 0 .0763781-.02521.0763781-.0756302l1.578482-9.7058824c0-.02521 0-.0756302-.0509188-.0756302-.1018375-.0756303-.2036751-.1512605-.330972-.2773109-.0254594-.0252101-.0509188-.0252101-.0509188-.0252101h-.0254594l-18.1016238 7.7394958c-.0509187.0252101-.0509187.0504201-.0509187.1008403.0254594.2016807.0763781.3781513.0763781.5798319zm-6.1357121 2.4453782c-.0763782-.1008403-.1527563-.2016807-.2291345-.3277311-.0254594-.0252101-.0509188-.0504202-.0763782-.0504202h-.0254593l-6.31392789 2.697479c-.02545939 0-.05091878.0252101-.05091878.0504202s0 .0504202.02545939.0756302l3.08058578 3.0504202c.0254594.0252101.0509188.0252101.0509188.0252101.0254593 0 .0509187-.0252101.0763781-.0504202l3.487936-5.420168s0-.0252101-.0254594-.0504202zm4.1753394.9831933c-.0254594-.0252101-.0509188-.0504202-.0763782-.0504202h-.0254594c-.4582689.2016807-.9165379.302521-1.4002662.302521-.3818908 0-.7383222-.0504202-1.120213-.1764706h-.0254594c-.0254594 0-.0509188.0252101-.0763782.0504202l-3.6661516 5.697479-.0254594.0252101c-.0254594.02521-.0254594.0756302 0 .1008403l16.8541138 16.7142857c.0254594.0252101.0509188.0252101.0509188.0252101.0254594 0 .0509188 0 .0509188-.0252101l2.9532888-2.9495798c.0254594-.0252101.0254594-.0756303 0-.1008404zm-2.367723-6.579832c.0254594.0252101.0509188.0504202.0763782.0504202h.0254594c.2545938-.0504202.5346471-.1008403.789241-.1008403.2800532 0 .5855658.0504201.8656191.1260504h.0254594c.0254594 0 .0509188-.0252101.0763781-.0504202l6.8231156-10.5882353c.0254594-.0252101.0254594-.0756302 0-.1008403-.5346471-.5546219-.8401597-1.2857143-.8401597-2.0672269 0-.2268908.0254594-.4537815.0763781-.6806723 0-.0504201-.0254594-.0756302-.0509187-.1008403-.8656192-.3781513-8.5288945-3.605042-8.5288945-3.6302521h-.0254594c-.0254594 0-.0509188 0-.0509188.0252101l-6.49214354 6.4537815c-.02545939.0252101-.02545939.0756302 0 .1008403zm.7383222-18.4537815s7.7396535 3.2773109 8.0706256 3.4285715h.0254593c.0254594 0 .0254594 0 .0509188-.0252101.5346471-.4285715 1.2220506-.6806723 1.909454-.6806723.330972 0 .6619441.0504202.9929161.1512605h.0254594c.0254593 0 .0509187-.0252101.0763781-.0504202l6.2884685-9.75630248c.0254594-.02521009.0254594-.07563026 0-.10084034l-5.2191742-5.16806723c-.0254594-.02521008-.0254594-.02521008-.0509188-.02521008s-.0509188 0-.0509188.02521008l-12.118668 12.05042015c-.0254594.0252101-.0254594.0504202-.0254594.0756303-.0254593.0504201 0 .0504201.0254594.0756302zm-3.0042076 20.2941177c.0254594 0 .0509188-.0252101.0763782-.0504202.1527563-.302521.3818908-.5798319.6110253-.8319328.0254593-.0252101.0254593-.0756302 0-.1008403-.0763782-.1008403-6.97587194-10.0840336-6.97587194-10.1092437-.02545939-.0252101-.02545939-.0252101-.07637816-.0504202-.02545939 0-.05091877 0-.05091877.0252101l-8.04516614 7.9663866c-.02545938.0252101-.02545938.0504201-.02545938.0756302s.02545938.0504202.07637815.0504202l14.41001274 3.0252101c-.0254594 0-.0254594 0 0 0zm-.661944 1.7394958c0-.0504202-.0254594-.0756303-.0763782-.0756303l-12.50055876-2.5966386s0 0-.02545938 0c-.02545939 0-.05091878.02521-.07637816.0504201-.02545939.0252101 0 .0756303.02545938.1008404l5.57560565 5.5462185c.02545939.02521.05091877.02521.05091877.02521h.02545939l6.92495311-2.9495798c.0509188-.0504202.0763782-.0756302.0763782-.1008403z" fill="url(#a)"/><path d="m121.950461 15.1008403h4.073502v26.2689076h-4.073502zm-41.6770154 7.4117647c-2.1895072 0-3.9462049.8319328-5.2955523 2.4705883l-.127297-2.1428572h-3.818908v18.5042017h4.0735019v-13.1596639c.8147004-1.512605 2.0367509-2.2689075 3.6661516-2.2689075 1.120213 0 1.9349134.2773109 2.4441011.8571428.5091878.5546219.7383223 1.4369748.7383223 2.5966387v11.9747899h4.0735018v-12.2268907c-.0509188-4.3865547-1.9603728-6.6050421-5.7538214-6.6050421zm17.5924361 0c-1.5530226 0-2.9532888.4033614-4.2262581 1.2100841-1.2729694.8067227-2.2404261 1.9411764-2.9532889 3.4033613-.6874034 1.4621849-1.0438348 3.1008404-1.0438348 4.9411765v.5042017c0 2.7478991.8147003 4.9663865 2.4186417 6.6302521 1.6039413 1.6638655 3.691611 2.4957983 6.2884685 2.4957983 1.5021038 0 2.8769109-.302521 4.0989609-.907563 1.222051-.6050421 2.189508-1.4621849 2.90237-2.5714286l-2.189507-2.1428571c-1.171132 1.5378151-2.698695 2.3193277-4.5572301 2.3193277-1.3238881 0-2.4441011-.4537815-3.3097202-1.3361345-.8910785-.8823529-1.3748069-2.0924369-1.5021038-3.6302521h11.8640741v-1.6638655c0-2.9495798-.687403-5.2184874-2.011292-6.8319328-1.400266-1.6134454-3.30972-2.4201681-5.7792803-2.4201681zm3.7170703 7.8655463h-7.7651127c.1782157-1.4369748.6364846-2.5462185 1.3238881-3.3277311.6874034-.8067227 1.6039413-1.184874 2.7241543-1.184874s2.0112916.3529412 2.6477763 1.0588235c.636485.7058824.992916 1.7647059 1.094754 3.1512606v.302521zm13.238881 7.4117647c-.280053-.302521-.40735-.8319328-.40735-1.5378152v-10.3361344h3.207883v-3.0756303h-3.207883v-4.4873949h-4.073502v4.4873949h-2.978748v3.0756303h2.978748v10.4873949c0 3.5294118 1.578482 5.2941177 4.709987 5.2941177.865619 0 1.756697-.1260504 2.698695-.4033614v-3.2268907c-.483729.1260504-.967457.1764706-1.425726.1764706-.738322.0252101-1.222051-.1260504-1.502104-.4537815zm17.516058-14.9243698h4.073502v18.5042017h-4.073502zm27.190625 12.5546219-3.844368-12.5546219h-4.404473l6.390306 18.4033614-.585566 1.5882353c-.305513.907563-.712863 1.5378151-1.24751 1.9159663-.509188.3781513-1.298429.579832-2.316804.579832l-.763782-.0504202v3.2268908c.712863.2016806 1.374807.302521 1.960373.302521 2.647776 0 4.531771-1.5630252 5.651984-4.6638656l7.230465-21.302521h-4.353555zm-15.122876-19.0084034c-1.120213 1.1092437-1.680319 2.697479-1.680319 4.7647059v1.6890756h-2.775073v3.0756303h2.775073v15.4285714h4.073502v-15.4285714h3.691611v-3.0756303h-3.691611v-1.6386554c0-2.0420169.967456-3.0504202 2.927829-3.0504202.585566 0 1.120213.0504202 1.553023.1260504l.101837-3.2521008c-.8147-.2016807-1.553022-.302521-2.291345-.302521-1.985832-.0252101-3.564314.5546218-4.684527 1.6638655zm-7.994247-1.6890756v3.6302521h-4.073502v-3.6302521z" fill="url(#b)"/></g></svg>