<?xml version="1.0" encoding="UTF-8"?>
<svg width="144px" height="32px" viewBox="0 0 300 67" version="1.1" xmlns="http://www.w3.org/2000/svg"
     xmlns:xlink="http://www.w3.org/1999/xlink">
    <!-- Generator: Sketch 52.2 (67145) - http://www.bohemiancoding.com/sketch -->
    <title>mcro-horizontal</title>
    <desc>Created with Sketch.</desc>
    <g id="Landing-Page" stroke="none" stroke-width="1" fill="none" fill-rule="evenodd">
        <g id="mcro-horizontal">
            <path d="M60.7361963,42.412844 L60.7361963,31.3486239 L43.5582822,60.2385321 L34.9693252,60.2385321 L17.791411,32.5779817 L17.791411,67 L0,67 L0,0 L15.9509202,0 L39.2638037,38.7247706 L62.5766871,0 L78.5276074,0 L78.5276074,42.412844 L60.7361963,42.412844 Z M122.819792,67 C116.160155,67 110.154921,65.5735033 104.690098,62.8859649 C99.5125742,59.8674308 95.3317149,55.8947141 92.4086922,50.5438596 C89.2503738,45.7096815 87.7300613,39.9423399 87.7300613,33.5 C87.7300613,27.0576601 89.2503738,21.2903185 92.4086922,16.4561404 C95.3317149,11.1052859 99.5125742,7.13256921 104.690098,4.11403509 C110.154921,1.42649672 116.160155,0 122.819792,0 C128.687718,0 133.947999,1.04302986 138.610171,2.93859649 C143.313265,5.2152119 147.205265,8.22159209 150.306748,12.3421053 L138.610171,22.9210526 C134.677759,17.6089492 129.660728,15.0934066 123.98945,15.2807018 C120.295463,15.0934066 117.209229,15.8603403 114.632189,17.6315789 C111.796835,18.9281212 109.698804,21.0908743 108.199071,24.0964912 C106.718947,26.6742356 105.973993,29.8800185 105.859756,33.5 C105.973993,37.1199815 106.718947,40.3257644 108.199071,42.9035088 C109.698804,45.9091257 111.796835,48.0718788 114.632189,49.3684211 C117.209229,51.1396597 120.295463,51.9065934 123.98945,51.7192982 C129.660728,51.9065934 134.677759,49.3910508 138.610171,44.0789474 L150.306748,54.6578947 C147.205265,58.7784079 143.313265,61.7847881 138.610171,64.0614035 C133.947999,65.9569701 128.687718,67 122.819792,67 Z M187.116564,49.1743119 L176.687117,49.1743119 L176.687117,67 L157.668712,67 L157.668712,0 L188.343558,0 C194.494411,0 199.778041,1.00498995 204.294479,3.0733945 C208.744335,5.02501005 212.202711,7.89640991 214.723926,11.6788991 C217.070128,15.3621615 218.286964,19.7490224 218.404908,24.587156 C218.286964,29.6395481 217.150183,33.8668867 214.723926,37.4954128 C212.602991,41.077399 209.352758,43.9009422 204.907975,46.1009174 L219.631902,67 L199.386503,67 L187.116564,49.1743119 Z M200,25.2018349 C200,22.1154315 198.993313,19.6847256 196.932515,17.8256881 C194.966507,16.2305127 191.97892,15.3669725 187.730061,15.3669725 L177.300613,15.3669725 L177.300613,35.0366972 L187.730061,35.0366972 C191.97892,35.0366972 194.966507,34.1891485 196.932515,32.5779817 C198.993313,30.7989025 200,28.3841881 200,25.2018349 Z" id="MCRO-Copy-6" fill="#212121"></path>
            <path d="M263.975891,67 C256.819921,67 250.652879,65.5581646 245.205037,62.8859649 C239.709695,59.7907365 235.412859,55.8026811 232.300075,50.5438596 C229.168443,45.6176485 227.607362,39.8809843 227.607362,33.5 C227.607362,27.1190157 229.168443,21.3823515 232.300075,16.4561404 C235.412859,11.1973189 239.709695,7.2092635 245.205037,4.11403509 C250.652879,1.4418354 256.819921,0 263.975891,0 C270.545271,0 276.712313,1.4418354 282.160155,4.11403509 C287.655497,7.2092635 291.952333,11.1973189 295.065117,16.4561404 C298.19675,21.3823515 299.75783,27.1190157 299.75783,33.5 C299.75783,39.8809843 298.19675,45.6176485 295.065117,50.5438596 C291.952333,55.8026811 287.655497,59.7907365 282.160155,62.8859649 C276.712313,65.5581646 270.545271,67 263.975891,67 Z M263.975891,52.3070175 C266.917646,52.3070175 269.847459,51.5356437 272.188139,49.9561404 C275.096786,48.4501019 277.17207,46.2748276 278.64062,43.4912281 C280.224005,40.6591417 280.986977,37.4347989 280.986977,34.0877193 C280.986977,30.1529204 280.224005,26.9285776 278.64062,24.0964912 C277.17207,21.3128917 275.096786,19.1376174 272.188139,17.6315789 C269.847459,16.0520756 266.917646,15.2807018 263.975891,15.2807018 C260.447546,15.2807018 257.517733,16.0520756 255.177053,17.6315789 C252.268406,19.1376174 250.193122,21.3128917 248.724572,24.0964912 C247.141188,26.9285776 246.378215,30.1529204 246.378215,34.0877193 C246.378215,37.4347989 247.141188,40.6591417 248.724572,43.4912281 C250.193122,46.2748276 252.268406,48.4501019 255.177053,49.9561404 C257.517733,51.5356437 260.447546,52.3070175 263.975891,52.3070175 Z" id="Combined-Shape" fill="#212121"></path>
            <ellipse id="Oval" fill="#FDD835" cx="69.6319018" cy="58.087156" rx="8.89570552" ry="8.91284404"></ellipse>
        </g>
    </g>
</svg>
