<svg version="1.1" class="logo" xmlns="http://www.w3.org/2000/svg" xmlns:xlink="http://www.w3.org/1999/xlink" x="0px" y="0px" viewBox="454 -454 1052 1052" enable-background="new 454 -454 1052 1052" xml:space="preserve">
<rect id="Yellow_square" x="454.2" y="-453.8" fill="#F2DE48" width="1051.8" height="1051.8"></rect>
<g id="JS" transform="translate(0.000000,1052.000000) scale(0.100000,-0.100000)">
 <path fill="#20201F" d="M12443.3,10337.2c-380.2-30.2-699-167-936.3-402.3c-244.4-242.4-361.1-538.1-361.1-913.2
   c0-561.2,230.3-953.4,744.3-1264.2c130.7-78.4,308.8-163.9,616.5-296.7c419.4-180,575.3-265.5,674.9-372.1
   c122.7-131.8,156.9-342,79.5-502.9c-15.1-31.2-54.3-83.5-89.5-118.7c-118.7-119.7-305.7-183-538.1-183
   c-392.2,0-684.9,160.9-920.3,508.9c-32.2,46.3-61.4,84.5-65.4,84.5c-9.1,0-774.4-441.5-790.5-456.6c-10.1-9.1-2-30.2,37.2-94.5
   c305.7-514.9,783.5-816.7,1429.2-903.2c169-23.1,485.8-22.1,647.7,0c406.3,57.3,711.1,192.1,947.4,421.4
   c251.4,242.4,375.1,556.2,375.1,949.4c0,251.4-41.2,447.6-134.8,641.7c-64.4,132.8-128.7,222.3-239.4,334.9
   c-212.2,215.2-486.8,378.2-1034.9,613.5c-414.4,178-553.2,254.5-644.7,352c-87.5,93.5-124.7,203.2-116.7,339.9
   c7,108.6,37.2,182,103.6,253.4c95.5,103.6,206.2,146.8,377.2,145.8c194.1,0,319.8-50.3,447.6-179
   c45.3-44.3,103.6-115.7,130.7-158.9c31.2-49.3,54.3-76.4,62.4-73.4c26.1,11.1,757.3,483.8,757.3,490.8c0,4-37.2,62.4-82.5,130.7
   c-96.6,144.8-270.5,325.9-390.2,405.3c-221.3,146.8-457.6,222.3-769.4,245.4C12607.3,10348.3,12587.2,10348.3,12443.3,10337.2z"></path>
 <path fill="#20201F" d="M9312.4,8509.8l-3-1778.2l-22.1-83.5c-29.2-109.6-63.4-175-123.7-235.3c-84.5-84.5-193.1-119.7-374.1-120.7
   c-258.5-1-413.4,108.6-593.4,416.4c-29.2,48.3-55.3,87.5-58.3,86.5c-4-2-186.1-111.6-404.3-243.4l-397.3-241.4l30.2-60.3
   c180-359.1,491.8-630.6,867-755.3c396.3-131.8,905.2-119.7,1278.3,30.2c447.6,181,710.1,555.2,779.5,1111.3
   c6,56.3,10.1,684.9,10.1,1867.7v1783.2h-492.8h-491.8L9312.4,8509.8z"></path>
</g>
<g id="Blue_triangles">
 <polygon fill="#3580C2" points="664.6,-348.7 559.3,-348.7 664.6,-454 769.9,-348.7 	"></polygon>
 <polygon fill="#3580C2" points="559.3,-33.1 454.1,-33.1 559.3,-138.3 664.6,-33.1 	"></polygon>
 <polygon fill="#3580C2" points="454.1,72.2 454.1,-33.1 559.3,72.2 454.1,177.5 	"></polygon>
 <polygon fill="#3580C2" points="664.6,-138.4 664.6,-243.6 769.9,-138.4 664.6,-33.1 	"></polygon>
 <polygon fill="#3580C2" points="980.1,-454 1085.4,-454 980.1,-348.7 874.8,-454 	"></polygon>
</g>
<g id="Green_triangles">
 <polygon fill="#43A447" points="559.8,-243.5 559.8,-138.2 454.5,-243.5 559.8,-348.8 	"></polygon>
 <polygon fill="#43A447" points="875.3,-348.6 875.3,-243.3 770,-348.6 875.3,-453.8 	"></polygon>
 <polygon fill="#43A447" points="875,-138.2 769.7,-138.2 875,-243.5 980.3,-138.2 	"></polygon>
 <polygon fill="#43A447" points="559.5,177.6 664.8,177.6 559.5,282.9 454.2,177.6 	"></polygon>
 <polygon fill="#43A447" points="1085.5,-348.8 1085.5,-243.5 980.3,-348.8 1085.5,-454 	"></polygon>
</g>
<g id="Red_triangles">
 <polygon fill="#DB3127" points="454.2,-348.6 454.2,-453.8 559.5,-348.6 454.2,-243.3 	"></polygon>
 <polygon fill="#DB3127" points="770.1,-243.5 664.8,-243.5 770.1,-348.8 875.4,-243.5 	"></polygon>
 <polygon fill="#DB3127" points="664.8,-138.2 664.8,-32.9 559.5,-138.2 664.8,-243.5 	"></polygon>
 <polygon fill="#DB3127" points="559.5,-32.9 664.8,-32.9 559.5,72.3 454.2,-32.9 	"></polygon>
 <polygon fill="#DB3127" points="769.7,-32.9 769.7,72.3 664.4,-32.9 769.7,-138.2 	"></polygon>
</g>
<g id="White_triangles">
 <polygon fill="#FFFFFF" points="559.5,-453.8 664.8,-453.8 559.5,-348.6 454.2,-453.8 	"></polygon>
 <polygon fill="#FFFFFF" points="875,-348.6 875,-453.8 980.3,-348.6 875,-243.3 	"></polygon>
 <polygon fill="#FFFFFF" points="559.9,-243.5 559.9,-348.8 665.2,-243.5 559.9,-138.2 	"></polygon>
 <polygon fill="#FFFFFF" points="770.1,-243.5 875.4,-243.5 770.1,-138.2 664.8,-243.5 	"></polygon>
 <polygon fill="#FFFFFF" points="454.2,-138.2 454.2,-243.5 559.5,-138.2 454.2,-32.9 	"></polygon>
 <polygon fill="#FFFFFF" points="664.8,72.3 664.8,177.6 559.5,72.3 664.8,-32.9 	"></polygon>
 <polygon fill="#FFFFFF" points="1190.8,-453.8 1296.1,-453.8 1190.8,-348.6 1085.5,-453.8 	"></polygon>
</g>
</svg>